<?xml version="1.0" encoding="UTF-8" standalone="no"?>
<svg
   xmlns:dc="http://purl.org/dc/elements/1.1/"
   xmlns:cc="http://creativecommons.org/ns#"
   xmlns:rdf="http://www.w3.org/1999/02/22-rdf-syntax-ns#"
   xmlns:svg="http://www.w3.org/2000/svg"
   xmlns="http://www.w3.org/2000/svg"
   viewBox="0 0 244.52133 243.28667"
   height="243.28667"
   width="244.52133"
   xml:space="preserve"
   id="svg2"
   version="1.1"><metadata
     id="metadata8"><rdf:RDF><cc:Work
         rdf:about=""><dc:format>image/svg+xml</dc:format><dc:type
           rdf:resource="http://purl.org/dc/dcmitype/StillImage" /></cc:Work></rdf:RDF></metadata><defs
     id="defs6"><clipPath
       id="clipPath18"
       clipPathUnits="userSpaceOnUse"><path
         id="path16"
         d="M 0,182.465 H 183.391 V 0 H 0 Z" /></clipPath></defs><g
     transform="matrix(1.3333333,0,0,-1.3333333,0,243.28667)"
     id="g10"><g
       id="g12"><g
         clip-path="url(#clipPath18)"
         id="g14"><g
           transform="translate(14.363,35.379)"
           id="g20"><path
             id="path22"
             style="fill:#a1a3a5;fill-opacity:1;fill-rule:nonzero;stroke:none"
             d="m 0,0 c 0.219,0.239 0.449,0.461 0.696,0.676 25.156,21.719 35.886,49.731 35.886,93.668 0,22.465 18.282,40.742 40.754,40.742 22.465,0 40.742,-18.277 40.742,-40.742 0,-43.898 10.735,-71.91 35.903,-93.672 0.246,-0.215 0.476,-0.437 0.695,-0.672 z m 77.332,-23.379 c -7.472,0 -13.855,4.746 -16.304,11.379 h 32.609 c -2.449,-6.633 -8.832,-11.379 -16.305,-11.379 m 84.489,33.137 c -16.485,14.254 -31.743,34.367 -31.743,84.586 0,29.082 -23.66,52.742 -52.742,52.742 -29.09,0 -52.754,-23.66 -52.754,-52.742 C 24.582,44.082 9.336,23.989 -7.164,9.742 -11.738,5.758 -14.363,0.02 -14.363,-6 c 0,-3.312 2.688,-6 6,-6 h 56.941 c 2.778,-13.328 14.614,-23.379 28.754,-23.379 14.141,0 25.977,10.047 28.754,23.379 h 56.942 c 3.312,0 6,2.688 6,6 0,6.071 -2.629,11.817 -7.207,15.758" /></g></g></g></g></svg>