<?xml version="1.0" encoding="utf-8"?>
<!-- Generator: Adobe Illustrator 21.0.0, SVG Export Plug-In . SVG Version: 6.00 Build 0)  -->
<svg version="1.1" id="Layer_1" xmlns="http://www.w3.org/2000/svg" xmlns:xlink="http://www.w3.org/1999/xlink" x="0px" y="0px"
	 viewBox="0 0 29.7 25.8" style="enable-background:new 0 0 29.7 25.8;" xml:space="preserve">
<style type="text/css">
	.st0{fill:#7B7E8D;}
</style>
<g>
	<path class="st0" d="M18.3,3.5c0,1.9-1.6,3.5-3.5,3.5s-3.5-1.6-3.5-3.5S12.9,0,14.8,0S18.3,1.5,18.3,3.5L18.3,3.5z"/>
	<path class="st0" d="M26.9,13l-3.2-0.7c-1.1-0.2-2.2,0.3-2.8,1.2c-0.6-0.3-1.2-0.5-1.8-0.7v-1.9c0-1.5-1.2-2.6-2.6-2.6h-3.3
		c-1.5,0-2.6,1.2-2.6,2.6v1.9C10,13,9.4,13.2,8.8,13.5c-0.6-0.9-1.7-1.4-2.8-1.2L2.8,13c-1.4,0.3-2.3,1.7-2,3.1L1.5,20
		c0.3,1.4,1.7,2.3,3.1,2l1-0.2c0.5,0.8,1.2,1.4,2.1,2c1.9,1.2,4.4,1.9,7,1.9c4.1,0,7.5-1.6,9.1-4l1,0.2c1.4,0.3,2.8-0.6,3.1-2
		l0.8-3.9C29.3,14.7,28.3,13.3,26.9,13L26.9,13z M14.8,24.5c-2.4,0-4.6-0.6-6.3-1.7c-0.5-0.4-1-0.8-1.4-1.3l0.8-0.2
		c1.4-0.3,2.3-1.7,2-3.1l-0.7-3.5c0.4-0.2,0.9-0.4,1.3-0.6v0.6c0,1.4,1.2,2.6,2.6,2.6h3.3c1.5,0,2.6-1.2,2.6-2.6V14
		c0.5,0.2,0.9,0.4,1.4,0.6l-0.7,3.5c-0.3,1.4,0.6,2.8,2,3.1l0.8,0.2C21.1,23.3,18.2,24.5,14.8,24.5L14.8,24.5z"/>
	<g>
		<path class="st0" d="M29.7,8c0,1.9-1.5,3.5-3.5,3.5c-1.9,0-3.5-1.5-3.5-3.5s1.5-3.5,3.5-3.5C28.1,4.6,29.7,6.1,29.7,8L29.7,8z"/>
		<path class="st0" d="M4.2,11.4C6.1,11,7.3,9.2,6.9,7.3S4.6,4.2,2.8,4.6C0.9,5-0.3,6.9,0.1,8.7C0.5,10.6,2.3,11.8,4.2,11.4
			L4.2,11.4z"/>
	</g>
</g>
</svg>
