<?xml version="1.0" encoding="UTF-8" standalone="no"?>
<svg
   xmlns:dc="http://purl.org/dc/elements/1.1/"
   xmlns:cc="http://creativecommons.org/ns#"
   xmlns:rdf="http://www.w3.org/1999/02/22-rdf-syntax-ns#"
   xmlns:svg="http://www.w3.org/2000/svg"
   xmlns="http://www.w3.org/2000/svg"
   viewBox="0 0 52.964001 52.964001"
   height="52.964001"
   width="52.964001"
   xml:space="preserve"
   id="svg2"
   version="1.1"><metadata
     id="metadata8"><rdf:RDF><cc:Work
         rdf:about=""><dc:format>image/svg+xml</dc:format><dc:type
           rdf:resource="http://purl.org/dc/dcmitype/StillImage" /></cc:Work></rdf:RDF></metadata><defs
     id="defs6"><clipPath
       id="clipPath18"
       clipPathUnits="userSpaceOnUse"><path
         id="path16"
         d="M 0,39.723 H 39.723 V 0 H 0 Z" /></clipPath></defs><g
     transform="matrix(1.3333333,0,0,-1.3333333,0,52.964)"
     id="g10"><g
       id="g12"><g
         clip-path="url(#clipPath18)"
         id="g14"><g
           transform="translate(24.801,19.164)"
           id="g20"><path
             id="path22"
             style="fill:#ffffff;fill-opacity:1;fill-rule:nonzero;stroke:none"
             d="M 0,0 H -3.231 V -11.52 H -8.02 V 0 h -2.277 v 4.07 h 2.277 v 2.633 c 0,1.883 0.895,4.832 4.832,4.832 L 0.359,11.52 V 7.57 h -2.574 c -0.422,0 -1.016,-0.211 -1.016,-1.109 V 4.066 h 3.649 z m -4.942,20.559 c -10.949,0 -19.859,-8.911 -19.859,-19.86 0,-10.953 8.91,-19.863 19.859,-19.863 10.953,0 19.864,8.91 19.864,19.863 0,10.949 -8.911,19.86 -19.864,19.86" /></g></g></g></g></svg>