<?xml version="1.0" encoding="UTF-8" standalone="no"?>
<svg
   xmlns:dc="http://purl.org/dc/elements/1.1/"
   xmlns:cc="http://creativecommons.org/ns#"
   xmlns:rdf="http://www.w3.org/1999/02/22-rdf-syntax-ns#"
   xmlns:svg="http://www.w3.org/2000/svg"
   xmlns="http://www.w3.org/2000/svg"
   viewBox="0 0 349.86401 347.19733"
   height="347.19733"
   width="349.86401"
   xml:space="preserve"
   id="svg2"
   version="1.1"><metadata
     id="metadata8"><rdf:RDF><cc:Work
         rdf:about=""><dc:format>image/svg+xml</dc:format><dc:type
           rdf:resource="http://purl.org/dc/dcmitype/StillImage" /></cc:Work></rdf:RDF></metadata><defs
     id="defs6"><clipPath
       id="clipPath18"
       clipPathUnits="userSpaceOnUse"><path
         id="path16"
         d="M 0,260.398 H 262.398 V 0 H 0 Z" /></clipPath></defs><g
     transform="matrix(1.3333333,0,0,-1.3333333,0,347.19733)"
     id="g10"><g
       id="g12"><g
         clip-path="url(#clipPath18)"
         id="g14"><g
           transform="translate(41.801,210.199)"
           id="g20"><path
             id="path22"
             style="fill:#ffffff;fill-opacity:1;fill-rule:nonzero;stroke:none"
             d="m 0,0 c 0,-27.684 22.519,-50.199 50.199,-50.199 27.68,0 50.199,22.515 50.199,50.199 0,27.679 -22.519,50.199 -50.199,50.199 C 22.519,50.199 0,27.679 0,0" /></g><g
           transform="translate(173.914,51.511)"
           id="g24"><path
             id="path26"
             style="fill:#ffffff;fill-opacity:1;fill-rule:nonzero;stroke:none"
             d="m 0,0 c 2.344,-2.34 5.414,-3.511 8.484,-3.511 3.075,0 6.145,1.171 8.489,3.511 4.683,4.688 4.683,12.285 0,16.973 L 1.457,32.485 16.973,48.004 c 4.683,4.684 4.683,12.285 0,16.969 C 12.285,69.66 4.688,69.66 0,64.973 l -24,-24 c -2.25,-2.254 -3.516,-5.305 -3.516,-8.488 0,-3.184 1.266,-6.235 3.516,-8.485 z" /></g><g
           transform="translate(178.398,144)"
           id="g28"><path
             id="path30"
             style="fill:#ffffff;fill-opacity:1;fill-rule:nonzero;stroke:none"
             d="m 0,0 c 33.086,0 60,-26.918 60,-60 0,-33.086 -26.914,-60 -60,-60 -33.082,0 -60,26.914 -60,60 0,33.082 26.918,60 60,60 m -166.398,-112 h 100.477 c 15.398,-19.481 39.226,-32 65.921,-32 46.321,0 84,37.679 84,84 C 84,-13.684 46.321,24 0,24 -27.589,24 -52.113,10.625 -67.437,-9.977 -73.648,-8.676 -79.992,-8 -86.398,-8 c -50.73,0 -92,-41.274 -92,-92 0,-6.629 5.371,-12 12,-12" /></g></g></g></g></svg>