<?xml version="1.0" encoding="UTF-8" standalone="no"?>
<svg
   xmlns:dc="http://purl.org/dc/elements/1.1/"
   xmlns:cc="http://creativecommons.org/ns#"
   xmlns:rdf="http://www.w3.org/1999/02/22-rdf-syntax-ns#"
   xmlns:svg="http://www.w3.org/2000/svg"
   xmlns="http://www.w3.org/2000/svg"
   viewBox="0 0 510.61734 511.89334"
   height="511.89334"
   width="510.61734"
   xml:space="preserve"
   id="svg2"
   version="1.1"><metadata
     id="metadata8"><rdf:RDF><cc:Work
         rdf:about=""><dc:format>image/svg+xml</dc:format><dc:type
           rdf:resource="http://purl.org/dc/dcmitype/StillImage" /></cc:Work></rdf:RDF></metadata><defs
     id="defs6"><clipPath
       id="clipPath18"
       clipPathUnits="userSpaceOnUse"><path
         id="path16"
         d="M 0,0 H 382.8 V 383.76 H 0 Z" /></clipPath><clipPath
       id="clipPath30"
       clipPathUnits="userSpaceOnUse"><path
         id="path28"
         d="M 0,383.92 H 382.963 V 0 H 0 Z" /></clipPath></defs><g
     transform="matrix(1.3333333,0,0,-1.3333333,0,511.89333)"
     id="g10"><g
       id="g12"><g
         clip-path="url(#clipPath18)"
         id="g14"><g
           transform="translate(361.52,175.6)"
           id="g20"><path
             id="path22"
             style="fill:#959494;fill-opacity:1;fill-rule:nonzero;stroke:none"
             d="M 0,0 C 0,-1.039 -0.719,-1.918 -1.758,-2.078 L -35.36,-7.68 c -4.238,-0.719 -7.601,-3.84 -8.64,-7.922 -3.04,-11.758 -7.68,-23.039 -13.918,-33.519 -2.161,-3.68 -2,-8.239 0.476,-11.758 l 19.762,-27.84 c 0.558,-0.801 0.48,-2 -0.238,-2.723 l -23.84,-23.84 c -0.563,-0.558 -1.121,-0.636 -1.524,-0.636 -0.476,0 -0.879,0.16 -1.199,0.398 l -27.758,19.762 c -3.441,2.476 -8.082,2.637 -11.761,0.476 -10.481,-6.238 -21.758,-10.878 -33.52,-13.918 -4.16,-1.039 -7.281,-4.48 -7.922,-8.64 l -5.68,-33.602 c -0.16,-1.039 -1.039,-1.758 -2.078,-1.758 h -33.679 c -1.039,0 -1.922,0.719 -2.082,1.758 l -5.598,33.602 c -0.723,4.238 -3.84,7.601 -7.922,8.64 -11.437,2.961 -22.48,7.52 -32.801,13.442 -1.679,0.957 -3.597,1.437 -5.437,1.437 -2.16,0 -4.403,-0.64 -6.242,-2 l -28,-19.918 c -0.399,-0.242 -0.797,-0.402 -1.2,-0.402 -0.32,0 -0.961,0.082 -1.519,0.641 l -23.84,23.84 c -0.719,0.718 -0.801,1.839 -0.238,2.718 l 19.679,27.602 c 2.481,3.519 2.637,8.16 0.481,11.84 -6.242,10.398 -11.043,21.679 -14.082,33.441 -1.121,4.078 -4.481,7.199 -8.641,7.918 l -33.84,5.762 c -1.039,0.16 -1.757,1.039 -1.757,2.078 v 33.68 c 0,1.043 0.718,1.921 1.757,2.082 l 33.36,5.597 c 4.242,0.723 7.679,3.84 8.722,8 2.957,11.762 7.52,23.121 13.68,33.602 2.16,3.68 1.918,8.238 -0.562,11.68 l -19.918,28 c -0.563,0.8 -0.481,2 0.238,2.718 l 23.84,23.84 c 0.562,0.563 1.121,0.641 1.519,0.641 0.481,0 0.883,-0.16 1.203,-0.399 l 27.598,-19.679 c 3.52,-2.481 8.16,-2.641 11.84,-0.481 10.402,6.238 21.68,11.039 33.441,14.078 4.078,1.121 7.2,4.481 7.918,8.641 l 5.762,33.84 c 0.16,1.043 1.039,1.761 2.078,1.761 h 33.684 c 1.039,0 1.918,-0.718 2.078,-1.761 l 5.601,-33.36 c 0.719,-4.238 3.84,-7.679 8,-8.718 12.079,-3.039 23.598,-7.762 34.321,-14.082 3.679,-2.161 8.238,-2 11.758,0.48 l 27.601,19.84 c 0.399,0.242 0.801,0.402 1.199,0.402 0.321,0 0.961,-0.082 1.52,-0.64 l 23.84,-23.84 c 0.718,-0.723 0.8,-1.84 0.242,-2.723 L -57.36,94.64 c -2.48,-3.441 -2.64,-8.082 -0.48,-11.761 6.242,-10.481 10.879,-21.758 13.922,-33.52 1.039,-4.16 4.476,-7.277 8.636,-7.918 l 33.602,-5.68 c 1.039,-0.16 1.762,-1.043 1.762,-2.082 L 0.082,0 Z m 1.839,57.039 -26.879,4.562 c -2.8,9.039 -6.402,17.758 -10.8,26.078 L -20,109.84 c 6.718,9.441 5.679,22.32 -2.559,30.48 l -23.84,23.84 c -4.48,4.48 -10.402,6.961 -16.723,6.961 -4.957,0 -9.679,-1.52 -13.679,-4.403 L -99.04,150.879 c -8.64,4.562 -17.679,8.32 -27.039,11.121 l -4.48,26.558 c -1.922,11.442 -11.762,19.762 -23.359,19.762 h -33.68 c -11.602,0 -21.442,-8.32 -23.363,-19.762 l -4.637,-27.199 c -8.961,-2.801 -17.684,-6.48 -26,-10.961 l -22,15.844 c -4,2.879 -8.801,4.398 -13.762,4.398 -6.32,0 -12.32,-2.48 -16.719,-6.961 L -318,139.84 c -8.161,-8.161 -9.282,-21.04 -2.559,-30.481 l 16,-22.48 c -4.402,-8.399 -7.922,-17.118 -10.641,-26.161 l -26.558,-4.476 C -353.2,54.32 -361.52,44.48 -361.52,32.879 v -33.68 c 0,-11.598 8.32,-21.438 19.762,-23.359 l 27.199,-4.641 c 2.801,-8.957 6.48,-17.68 10.961,-26 l -15.762,-21.918 c -6.719,-9.441 -5.68,-22.32 2.559,-30.481 l 23.84,-23.839 c 4.48,-4.481 10.402,-6.961 16.722,-6.961 4.957,0 9.68,1.519 13.68,4.398 l 22.48,16 c 8.079,-4.238 16.559,-7.68 25.278,-10.398 l 4.48,-26.879 c 1.922,-11.442 11.762,-19.762 23.36,-19.762 h 33.761 c 11.602,0 21.442,8.32 23.36,19.762 l 4.558,26.879 c 9.043,2.8 17.762,6.398 26.082,10.8 l 22.16,-15.839 c 4,-2.879 8.801,-4.403 13.758,-4.403 6.321,0 12.242,2.481 16.723,6.961 l 23.84,23.84 c 8.16,8.16 9.277,21.039 2.558,30.481 L -36,-53.918 c 4.402,8.398 8.082,17.117 10.8,26.078 l 26.879,4.48 C 13.121,-21.442 21.441,-11.602 21.441,0 v 33.679 c 0.16,11.602 -8.16,21.442 -19.602,23.36" /></g></g></g><g
       id="g24"><g
         clip-path="url(#clipPath30)"
         id="g26"><g
           transform="translate(191.52,131.44)"
           id="g32"><path
             id="path34" 
             style="fill:#959494;fill-opacity:1;fill-rule:nonzero;stroke:none"
             d="m 0,0 c -33.68,0 -61.04,27.359 -61.04,61.039 0,33.679 27.36,61.043 61.04,61.043 33.679,0 61.039,-27.364 61.039,-61.043 C 61.039,27.359 33.679,0 0,0 m 0,143.679 c -45.598,0 -82.641,-37.039 -82.641,-82.64 0,-45.598 37.043,-82.637 82.641,-82.637 45.601,0 82.64,37.039 82.64,82.637 0,45.601 -37.039,82.64 -82.64,82.64" /></g></g></g></g></svg>