<?xml version="1.0" encoding="UTF-8" standalone="no"?>
<svg
   xmlns:dc="http://purl.org/dc/elements/1.1/"
   xmlns:cc="http://creativecommons.org/ns#"
   xmlns:rdf="http://www.w3.org/1999/02/22-rdf-syntax-ns#"
   xmlns:svg="http://www.w3.org/2000/svg"
   xmlns="http://www.w3.org/2000/svg"
   viewBox="0 0 23.469334 23.469334"
   height="23.469334"
   width="23.469334"
   xml:space="preserve"
   id="svg2"
   version="1.1"><metadata
     id="metadata8"><rdf:RDF><cc:Work
         rdf:about=""><dc:format>image/svg+xml</dc:format><dc:type
           rdf:resource="http://purl.org/dc/dcmitype/StillImage" /></cc:Work></rdf:RDF></metadata><defs
     id="defs6"><clipPath
       id="clipPath18"
       clipPathUnits="userSpaceOnUse"><path
         id="path16"
         d="M 0,17.602 H 17.602 V 0 H 0 Z" /></clipPath></defs><g
     transform="matrix(1.3333333,0,0,-1.3333333,0,23.469333)"
     id="g10"><g
       id="g12"><g
         clip-path="url(#clipPath18)"
         id="g14"><g
           transform="translate(4.062,5.676)"
           id="g20"><path
             id="path22"
             style="fill:#ffffff;fill-opacity:1;fill-rule:evenodd;stroke:none"
             d="m 0,0 c 0.153,-0.019 0.305,-0.031 0.465,-0.031 0.911,0 1.746,0.328 2.414,0.879 C 2.028,0.867 1.309,1.469 1.063,2.297 1.18,2.27 1.301,2.258 1.426,2.254 c 0.18,0 0.352,0.024 0.512,0.07 -0.887,0.2 -1.559,1.043 -1.559,2.047 V 4.399 C 0.641,4.239 0.942,4.145 1.262,4.129 0.739,4.504 0.395,5.145 0.395,5.867 0.395,6.246 0.493,6.602 0.661,6.906 1.618,5.637 3.051,4.797 4.668,4.692 4.633,4.844 4.618,5 4.618,5.16 4.618,6.297 5.485,7.203 6.559,7.188 7.118,7.18 7.626,6.922 7.981,6.52 8.422,6.602 8.84,6.766 9.215,6.992 9.071,6.52 8.762,6.125 8.36,5.879 8.75,5.922 9.126,6.024 9.477,6.184 9.215,5.778 8.883,5.422 8.504,5.141 8.508,5.051 8.512,4.965 8.512,4.875 8.512,2.176 6.555,-0.937 2.977,-0.933 1.883,-0.937 0.86,-0.594 0,0 m 13.54,3.125 c 0,4.86 -3.942,8.801 -8.801,8.801 -4.86,0 -8.801,-3.941 -8.801,-8.801 0,-4.859 3.941,-8.801 8.801,-8.801 4.859,0 8.801,3.942 8.801,8.801" /></g></g></g></g></svg>