<?xml version="1.0" encoding="UTF-8" standalone="no"?>
<svg
   xmlns:dc="http://purl.org/dc/elements/1.1/"
   xmlns:cc="http://creativecommons.org/ns#"
   xmlns:rdf="http://www.w3.org/1999/02/22-rdf-syntax-ns#"
   xmlns:svg="http://www.w3.org/2000/svg"
   xmlns="http://www.w3.org/2000/svg"
   viewBox="0 0 104.26533 104.26533"
   height="104.26533"
   width="104.26533"
   xml:space="preserve"
   id="svg2"
   version="1.1"><metadata
     id="metadata8"><rdf:RDF><cc:Work
         rdf:about=""><dc:format>image/svg+xml</dc:format><dc:type
           rdf:resource="http://purl.org/dc/dcmitype/StillImage" /></cc:Work></rdf:RDF></metadata><defs
     id="defs6"><clipPath
       id="clipPath18"
       clipPathUnits="userSpaceOnUse"><path
         id="path16"
         d="M 0,78.199 H 78.199 V 0 H 0 Z" /></clipPath></defs><g
     transform="matrix(1.3333333,0,0,-1.3333333,0,104.26533)"
     id="g10"><g
       id="g12"><g
         clip-path="url(#clipPath18)"
         id="g14"><g
           transform="translate(31.977,30.531)"
           id="g20"><path
             id="path22"
             style="fill:#fff;fill-opacity:1;fill-rule:evenodd;stroke:none"
             d="M 0,0 C 5.867,3.039 11.683,6.055 17.55,9.098 11.664,12.172 5.851,15.203 0,18.258 Z" /></g><g
           transform="translate(65.742,26.047)"
           id="g24"><path
             id="path26"
             style="fill:#fff;fill-opacity:1;fill-rule:evenodd;stroke:none"
             d="m 0,0 c -0.68,-2.934 -3.078,-5.102 -5.969,-5.422 -6.847,-0.766 -13.773,-0.77 -20.675,-0.766 -6.899,-0.004 -13.828,0 -20.676,0.766 -2.891,0.32 -5.289,2.488 -5.965,5.422 -0.965,4.183 -0.965,8.746 -0.965,13.05 0,4.309 0.012,8.872 0.977,13.055 0.672,2.934 3.074,5.102 5.965,5.422 6.847,0.766 13.777,0.77 20.675,0.766 6.899,0.004 13.829,0 20.672,-0.766 2.895,-0.32 5.297,-2.488 5.973,-5.422 C 0.973,21.922 0.965,17.355 0.965,13.05 0.965,8.746 0.961,4.183 0,0 m -26.64,52.152 c -21.594,0 -39.102,-17.504 -39.102,-39.102 0,-21.593 17.508,-39.097 39.102,-39.097 21.593,0 39.097,17.504 39.097,39.097 0,21.598 -17.504,39.102 -39.097,39.102" /></g></g></g></g></svg>