<svg xmlns="http://www.w3.org/2000/svg" xmlns:xlink="http://www.w3.org/1999/xlink" preserveAspectRatio="xMidYMid" width="61" height="61" viewBox="0 0 61 61">
  <defs>
    <style>

      .cls-3 {
        fill: #ffffff;
        stroke: #ffffff;
        stroke-linejoin: round;
        stroke-width: 1px;
        fill-opacity: 0;
      }

      .cls-4 {
        fill: #ffffff;
      }
    </style>
  </defs>
  <g id="1svg">
    <circle id="circle-1" class="cls-3" cx="30" cy="30" r="30"/>
    <path d="M44.388,30.411 C44.388,30.411 41.989,30.411 41.989,30.411 C41.658,30.411 41.390,30.146 41.390,29.818 C41.390,29.490 41.658,29.225 41.989,29.225 C41.989,29.225 44.388,29.225 44.388,29.225 C44.720,29.225 44.988,29.490 44.988,29.818 C44.988,30.146 44.720,30.411 44.388,30.411 ZM40.173,40.470 C40.019,40.470 39.866,40.412 39.749,40.296 C39.749,40.296 38.053,38.620 38.053,38.620 C37.818,38.388 37.818,38.013 38.053,37.782 C38.287,37.550 38.666,37.550 38.901,37.782 C38.901,37.782 40.597,39.458 40.597,39.458 C40.831,39.690 40.831,40.064 40.597,40.296 C40.480,40.412 40.326,40.470 40.173,40.470 ZM38.901,21.854 C38.784,21.970 38.630,22.028 38.477,22.028 C38.323,22.028 38.169,21.970 38.053,21.854 C37.818,21.622 37.818,21.248 38.053,21.016 C38.053,21.016 39.749,19.340 39.749,19.340 C39.983,19.109 40.362,19.108 40.597,19.340 C40.831,19.572 40.831,19.946 40.597,20.178 C40.597,20.178 38.901,21.854 38.901,21.854 ZM33.593,39.242 C33.593,39.242 33.593,44.636 33.593,44.636 C33.593,44.964 33.325,45.229 32.993,45.229 C32.993,45.229 32.393,45.229 32.393,45.229 C32.393,45.229 32.393,46.414 32.393,46.414 C32.393,46.742 32.125,47.007 31.793,47.007 C31.793,47.007 28.195,47.007 28.195,47.007 C27.863,47.007 27.595,46.742 27.595,46.414 C27.595,46.414 27.595,45.229 27.595,45.229 C27.595,45.229 26.995,45.229 26.995,45.229 C26.664,45.229 26.396,44.964 26.396,44.636 C26.396,44.636 26.396,39.242 26.396,39.242 C22.432,37.767 19.798,34.033 19.798,29.818 C19.798,24.262 24.372,19.742 29.994,19.742 C35.616,19.742 40.190,24.262 40.190,29.818 C40.190,34.033 37.557,37.767 33.593,39.242 ZM27.595,44.043 C27.595,44.043 28.195,44.043 28.195,44.043 C28.527,44.043 28.795,44.308 28.795,44.636 C28.795,44.636 28.795,45.821 28.795,45.821 C28.795,45.821 31.194,45.821 31.194,45.821 C31.194,45.821 31.194,44.636 31.194,44.636 C31.194,44.308 31.462,44.043 31.793,44.043 C31.793,44.043 32.393,44.043 32.393,44.043 C32.393,44.043 32.393,41.079 32.393,41.079 C32.393,41.079 27.595,41.079 27.595,41.079 C27.595,41.079 27.595,44.043 27.595,44.043 ZM29.994,20.927 C25.034,20.927 20.998,24.915 20.998,29.818 C20.998,33.665 23.484,37.057 27.182,38.259 C27.429,38.339 27.595,38.566 27.595,38.822 C27.595,38.822 27.595,39.894 27.595,39.894 C27.595,39.894 32.393,39.894 32.393,39.894 C32.393,39.894 32.393,38.822 32.393,38.822 C32.393,38.567 32.559,38.339 32.806,38.259 C36.505,37.057 38.991,33.665 38.991,29.818 C38.991,24.915 34.955,20.927 29.994,20.927 ZM29.994,23.891 C26.687,23.891 23.997,26.550 23.997,29.818 C23.997,30.146 23.728,30.411 23.397,30.411 C23.065,30.411 22.797,30.146 22.797,29.818 C22.797,25.896 26.026,22.705 29.994,22.705 C30.326,22.705 30.594,22.970 30.594,23.298 C30.594,23.626 30.326,23.891 29.994,23.891 ZM29.994,18.556 C29.663,18.556 29.394,18.291 29.394,17.963 C29.394,17.963 29.394,15.593 29.394,15.593 C29.394,15.265 29.663,15.000 29.994,15.000 C30.326,15.000 30.594,15.265 30.594,15.593 C30.594,15.593 30.594,17.963 30.594,17.963 C30.594,18.291 30.326,18.556 29.994,18.556 ZM21.512,22.028 C21.358,22.028 21.205,21.970 21.088,21.854 C21.088,21.854 19.392,20.178 19.392,20.178 C19.157,19.946 19.157,19.572 19.392,19.340 C19.626,19.108 20.005,19.108 20.240,19.340 C20.240,19.340 21.936,21.016 21.936,21.016 C22.170,21.248 22.170,21.622 21.936,21.854 C21.819,21.970 21.665,22.028 21.512,22.028 ZM17.999,30.411 C17.999,30.411 15.600,30.411 15.600,30.411 C15.268,30.411 15.000,30.146 15.000,29.818 C15.000,29.490 15.268,29.225 15.600,29.225 C15.600,29.225 17.999,29.225 17.999,29.225 C18.331,29.225 18.599,29.490 18.599,29.818 C18.599,30.146 18.331,30.411 17.999,30.411 ZM21.088,37.782 C21.322,37.550 21.701,37.550 21.936,37.782 C22.170,38.013 22.170,38.388 21.936,38.620 C21.936,38.620 20.240,40.296 20.240,40.296 C20.123,40.412 19.969,40.470 19.816,40.470 C19.662,40.470 19.509,40.412 19.392,40.296 C19.157,40.064 19.157,39.690 19.392,39.458 C19.392,39.458 21.088,37.782 21.088,37.782 Z" id="path-1" class="cls-4" fill-rule="evenodd"/>
  </g>
</svg>
