<svg xmlns="http://www.w3.org/2000/svg" xmlns:xlink="http://www.w3.org/1999/xlink" preserveAspectRatio="xMidYMid" width="42" height="42" viewBox="0 0 42 42">
  <defs>
    <style>

      .cls-3 {
        fill: #ffffff;
      }

      .cls-4 {
        fill: #00b1eb;
        filter: url(#color-overlay-1);
      }
    </style>

    <filter id="color-overlay-1" filterUnits="userSpaceOnUse">
      <feFlood flood-color="#00badf" flood-opacity="1"/>
      <feComposite operator="in" in2="SourceGraphic"/>
      <feBlend mode="normal" in2="SourceGraphic" result="colorOverlay"/>
    </filter>
  </defs>
  <g id="2-social-facebooksvg">
    <circle id="circle-1" class="cls-3" cx="21" cy="21" r="21"/>
    <path d="M26.000,14.553 C26.000,14.553 23.957,14.553 23.957,14.553 C22.394,14.553 22.228,15.250 22.228,16.330 C22.228,16.330 22.228,18.753 22.228,18.753 C22.228,18.753 25.843,18.753 25.843,18.753 C25.843,18.753 25.843,22.469 25.843,22.469 C25.843,22.469 22.228,22.469 22.228,22.469 C22.228,22.469 22.228,32.000 22.228,32.000 C22.228,32.000 18.300,32.000 18.300,32.000 C18.300,32.000 18.300,22.469 18.300,22.469 C18.300,22.469 15.000,22.469 15.000,22.469 C15.000,22.469 15.000,18.753 15.000,18.753 C15.000,18.753 18.300,18.753 18.300,18.753 C18.300,18.753 18.300,16.007 18.300,16.007 C18.300,12.812 20.220,11.000 23.094,11.000 C23.094,11.000 26.000,11.004 26.000,11.004 C26.000,11.004 26.000,14.486 26.000,14.486 C26.000,14.486 26.000,14.553 26.000,14.553 Z" id="path-1" class="cls-4" fill-rule="evenodd"/>
  </g>
</svg>
