<svg xmlns="http://www.w3.org/2000/svg" xmlns:xlink="http://www.w3.org/1999/xlink" preserveAspectRatio="xMidYMid" width="42" height="42" viewBox="0 0 42 42">
  <defs>
    <style>

      .cls-3 {
        fill: #ffffff;
      }

      .cls-4 {
        fill: #00badf;
      }
    </style>
  </defs>
  <g id="2-social-behancesvg">
    <circle id="circle-1" class="cls-3" cx="21" cy="21" r="21"/>
    <path d="M30.679,15.981 C30.679,15.981 24.664,15.981 24.664,15.981 C24.664,15.981 24.664,14.581 24.664,14.581 C24.664,14.581 30.680,14.581 30.680,14.581 C30.680,14.581 30.680,15.981 30.680,15.981 C30.680,15.981 30.679,15.981 30.679,15.981 ZM20.660,21.724 C21.048,22.287 21.242,22.971 21.242,23.774 C21.242,24.605 21.023,25.350 20.578,26.008 C20.295,26.444 19.944,26.812 19.522,27.108 C19.046,27.450 18.483,27.685 17.836,27.811 C17.187,27.936 16.484,28.000 15.727,28.000 C15.727,28.000 9.000,28.000 9.000,28.000 C9.000,28.000 9.000,14.000 9.000,14.000 C9.000,14.000 16.214,14.000 16.214,14.000 C18.032,14.028 19.321,14.521 20.082,15.491 C20.539,16.086 20.766,16.799 20.766,17.629 C20.766,18.485 20.536,19.170 20.075,19.690 C19.819,19.982 19.440,20.247 18.938,20.487 C19.698,20.747 20.274,21.158 20.660,21.724 ZM12.445,19.519 C12.445,19.519 15.605,19.519 15.605,19.519 C16.255,19.519 16.780,19.404 17.185,19.172 C17.589,18.941 17.790,18.531 17.790,17.941 C17.790,17.290 17.523,16.858 16.988,16.650 C16.528,16.505 15.939,16.431 15.225,16.431 C15.225,16.431 12.445,16.431 12.445,16.431 C12.445,16.431 12.445,19.519 12.445,19.519 ZM18.095,23.574 C18.095,22.847 17.778,22.344 17.145,22.075 C16.791,21.921 16.291,21.843 15.651,21.837 C15.651,21.837 12.445,21.837 12.445,21.837 C12.445,21.837 12.445,25.568 12.445,25.568 C12.445,25.568 15.601,25.568 15.601,25.568 C16.250,25.568 16.752,25.489 17.114,25.323 C17.767,25.017 18.095,24.437 18.095,23.574 ZM32.911,21.297 C32.984,21.755 33.017,22.419 33.003,23.288 C33.003,23.288 25.213,23.288 25.213,23.288 C25.256,24.296 25.627,25.001 26.331,25.404 C26.756,25.657 27.271,25.780 27.873,25.780 C28.509,25.780 29.027,25.630 29.426,25.320 C29.643,25.156 29.835,24.924 30.001,24.632 C30.001,24.632 32.856,24.632 32.856,24.632 C32.781,25.227 32.437,25.831 31.820,26.445 C30.862,27.420 29.520,27.909 27.796,27.909 C26.371,27.909 25.116,27.497 24.026,26.675 C22.940,25.850 22.395,24.513 22.395,22.657 C22.395,20.918 22.885,19.586 23.867,18.659 C24.853,17.731 26.126,17.268 27.695,17.268 C28.625,17.268 29.463,17.424 30.211,17.737 C30.957,18.051 31.573,18.544 32.058,19.222 C32.497,19.820 32.779,20.510 32.911,21.297 ZM30.101,21.558 C30.048,20.861 29.800,20.334 29.353,19.973 C28.910,19.612 28.356,19.430 27.695,19.430 C26.976,19.430 26.420,19.624 26.026,20.005 C25.629,20.386 25.381,20.903 25.280,21.558 C25.280,21.558 30.101,21.558 30.101,21.558 C30.101,21.558 30.101,21.558 30.101,21.558 Z" id="path-1" class="cls-4" fill-rule="evenodd"/>
  </g>
</svg>
