<svg xmlns="http://www.w3.org/2000/svg" xmlns:xlink="http://www.w3.org/1999/xlink" preserveAspectRatio="xMidYMid" width="42" height="42" viewBox="0 0 42 42">
  <defs>
    <style>

      .cls-3 {
        fill: #ffffff;
      }

      .cls-4 {
        fill: #00badf;
      }
    </style>
  </defs>
  <g id="2-social-dribbblesvg">
    <circle id="circle-1" class="cls-3" cx="21" cy="21" r="21"/>
    <path d="M28.794,16.482 C27.989,15.103 26.897,14.011 25.518,13.206 C24.139,12.401 22.633,11.999 21.000,11.999 C19.367,11.999 17.861,12.401 16.482,13.206 C15.103,14.011 14.011,15.102 13.206,16.482 C12.401,17.861 11.999,19.367 11.999,21.000 C11.999,22.633 12.401,24.139 13.206,25.518 C14.011,26.897 15.103,27.989 16.482,28.794 C17.861,29.599 19.367,30.001 21.000,30.001 C22.633,30.001 24.139,29.599 25.518,28.794 C26.897,27.989 27.989,26.897 28.794,25.518 C29.599,24.139 30.001,22.633 30.001,21.000 C30.001,19.367 29.599,17.861 28.794,16.482 ZM21.000,13.311 C22.937,13.311 24.629,13.952 26.075,15.233 C26.075,15.233 25.928,15.438 25.928,15.438 C25.870,15.521 25.723,15.679 25.489,15.913 C25.254,16.147 24.998,16.370 24.721,16.581 C24.444,16.792 24.067,17.033 23.590,17.302 C23.113,17.572 22.605,17.808 22.066,18.011 C21.168,16.355 20.207,14.862 19.183,13.534 C19.801,13.386 20.406,13.311 21.000,13.311 ZM14.976,16.229 C15.726,15.284 16.640,14.558 17.718,14.050 C18.687,15.339 19.640,16.816 20.578,18.480 C18.203,19.105 15.835,19.418 13.476,19.417 C13.726,18.238 14.226,17.175 14.976,16.229 ZM13.827,23.772 C13.483,22.893 13.311,21.969 13.311,21.000 C13.311,20.891 13.315,20.809 13.323,20.754 C16.152,20.754 18.781,20.391 21.211,19.664 C21.461,20.148 21.668,20.582 21.832,20.965 C21.801,20.980 21.750,20.998 21.680,21.018 C21.609,21.037 21.558,21.051 21.527,21.059 C21.527,21.059 21.093,21.211 21.093,21.211 C20.797,21.320 20.408,21.508 19.927,21.773 C19.447,22.039 18.937,22.356 18.398,22.723 C17.859,23.090 17.302,23.577 16.728,24.182 C16.153,24.788 15.671,25.438 15.280,26.134 C14.655,25.438 14.171,24.651 13.827,23.772 ZM21.000,28.689 C19.172,28.689 17.539,28.103 16.101,26.931 C16.101,26.931 16.277,27.059 16.277,27.059 C16.550,26.458 16.952,25.880 17.484,25.325 C18.015,24.770 18.527,24.323 19.019,23.983 C19.511,23.643 20.047,23.323 20.625,23.021 C21.203,22.721 21.598,22.529 21.809,22.448 C22.020,22.365 22.188,22.301 22.313,22.254 C22.313,22.254 22.336,22.242 22.336,22.242 C22.336,22.242 22.360,22.242 22.360,22.242 C23.125,24.250 23.672,26.196 24.000,28.079 C23.032,28.485 22.031,28.688 21.000,28.689 ZM27.470,25.155 C26.892,26.049 26.169,26.790 25.302,27.376 C24.981,25.579 24.481,23.746 23.801,21.879 C25.356,21.637 26.954,21.750 28.595,22.219 C28.423,23.281 28.048,24.260 27.470,25.155 ZM28.571,20.894 C28.493,20.879 28.396,20.861 28.278,20.842 C28.161,20.822 28.018,20.799 27.850,20.771 C27.683,20.744 27.495,20.719 27.288,20.695 C27.081,20.672 26.860,20.650 26.626,20.631 C26.391,20.611 26.141,20.596 25.876,20.584 C25.610,20.572 25.340,20.567 25.067,20.567 C24.793,20.567 24.506,20.574 24.205,20.590 C23.905,20.605 23.613,20.633 23.332,20.672 C23.309,20.633 23.279,20.568 23.244,20.479 C23.209,20.389 23.184,20.320 23.168,20.273 C23.020,19.945 22.848,19.574 22.652,19.160 C23.192,18.941 23.705,18.689 24.194,18.404 C24.682,18.119 25.073,17.865 25.366,17.642 C25.659,17.419 25.936,17.183 26.198,16.933 C26.460,16.683 26.630,16.509 26.708,16.412 C26.786,16.314 26.860,16.218 26.931,16.124 C26.931,16.124 26.942,16.113 26.942,16.113 C28.083,17.503 28.665,19.105 28.689,20.918 C28.689,20.918 28.571,20.894 28.571,20.894 Z" id="path-1" class="cls-4" fill-rule="evenodd"/>
  </g>
</svg>
