<svg xmlns="http://www.w3.org/2000/svg" xmlns:xlink="http://www.w3.org/1999/xlink" preserveAspectRatio="xMidYMid" width="42" height="42" viewBox="0 0 42 42">
  <defs>
    <style>

      .cls-3 {
        fill: #ffffff;
      }

      .cls-4 {
        fill: #2D63E2;
        filter: url(#color-overlay-1);
      }
    </style>

    <filter id="color-overlay-1" filterUnits="userSpaceOnUse">
      <feFlood flood-color="#2D63E2" flood-opacity="1"/>
      <feComposite operator="in" in2="SourceGraphic"/>
      <feBlend mode="normal" in2="SourceGraphic" result="colorOverlay"/>
    </filter>
  </defs>
  <g id="2-social-googlesvg">
    <circle id="circle-1" class="cls-3" cx="21" cy="21" r="21"/>
    <path d="M28.280,21.600 C28.280,21.600 28.280,24.320 28.280,24.320 C28.280,24.320 27.000,24.320 27.000,24.320 C27.000,24.320 27.000,21.600 27.000,21.600 C27.000,21.600 24.440,21.600 24.440,21.600 C24.440,21.600 24.440,20.480 24.440,20.480 C24.440,20.480 27.000,20.480 27.000,20.480 C27.000,20.480 27.000,17.760 27.000,17.760 C27.000,17.760 28.280,17.760 28.280,17.760 C28.280,17.760 28.280,20.480 28.280,20.480 C28.280,20.480 31.000,20.480 31.000,20.480 C31.000,20.480 31.000,21.600 31.000,21.600 C31.000,21.600 28.280,21.600 28.280,21.600 ZM20.986,13.064 C21.601,13.559 22.884,14.602 22.884,16.585 C22.884,18.513 21.762,19.429 20.638,20.289 C20.289,20.627 19.887,20.993 19.887,21.567 C19.887,22.139 20.290,22.453 20.583,22.689 C20.583,22.689 21.548,23.418 21.548,23.418 C22.726,24.382 23.797,25.269 23.796,27.070 C23.796,29.523 21.359,31.999 16.755,31.999 C12.872,31.999 11.000,30.200 11.000,28.269 C11.000,27.331 11.481,26.002 13.060,25.088 C14.719,24.097 16.970,23.967 18.175,23.887 C17.798,23.417 17.372,22.922 17.372,22.114 C17.372,21.671 17.505,21.410 17.638,21.097 C17.343,21.123 17.050,21.149 16.782,21.149 C13.945,21.149 12.339,19.087 12.339,17.053 C12.339,15.855 12.900,14.524 14.051,13.559 C15.578,12.333 17.664,12.000 19.111,12.000 C19.111,12.000 24.386,12.000 24.386,12.000 C24.386,12.000 22.645,13.064 22.645,13.064 C22.645,13.064 20.986,13.064 20.986,13.064 ZM15.658,25.037 C15.069,25.244 13.356,25.871 13.356,27.722 C13.356,29.574 15.203,30.906 18.068,30.906 C20.638,30.906 22.004,29.703 22.004,28.089 C22.004,26.755 21.120,26.053 19.084,24.644 C18.871,24.618 18.737,24.618 18.469,24.618 C18.228,24.618 16.782,24.669 15.658,25.037 ZM17.158,12.985 C16.460,12.985 15.712,13.324 15.283,13.847 C14.827,14.395 14.695,15.097 14.695,15.777 C14.695,17.524 15.738,20.418 18.041,20.418 C18.710,20.418 19.431,20.107 19.861,19.689 C20.477,19.087 20.530,18.254 20.530,17.784 C20.530,15.906 19.378,12.985 17.158,12.985 Z" id="path-1" class="cls-4" fill-rule="evenodd"/>
  </g>
</svg>
