<svg xmlns="http://www.w3.org/2000/svg" xmlns:xlink="http://www.w3.org/1999/xlink" preserveAspectRatio="xMidYMid" width="42" height="42" viewBox="0 0 42 42">
  <defs>
    <style>

      .cls-3 {
        fill: #ffffff;
      }

      .cls-4 {
        fill: #00b1eb;
        filter: url(#color-overlay-1);
      }
    </style>

    <filter id="color-overlay-1" filterUnits="userSpaceOnUse">
      <feFlood flood-color="#00badf" flood-opacity="1"/>
      <feComposite operator="in" in2="SourceGraphic"/>
      <feBlend mode="normal" in2="SourceGraphic" result="colorOverlay"/>
    </filter>
  </defs>
  <g id="2-social-twittersvg">
    <circle id="circle-1" class="cls-3" cx="21" cy="21" r="21"/>
    <path d="M31.973,14.145 C31.944,14.108 31.894,14.095 31.851,14.115 C31.223,14.409 30.563,14.619 29.883,14.744 C30.605,14.172 31.143,13.380 31.419,12.473 C31.432,12.429 31.418,12.382 31.384,12.353 C31.350,12.325 31.303,12.321 31.266,12.345 C30.453,12.852 29.572,13.210 28.647,13.409 C27.826,12.514 26.682,12.001 25.497,12.001 C23.087,12.001 21.127,14.064 21.127,16.599 C21.127,16.906 21.155,17.209 21.211,17.504 C17.873,17.287 14.752,15.602 12.630,12.863 C12.609,12.835 12.576,12.819 12.541,12.823 C12.507,12.826 12.476,12.846 12.459,12.877 C12.072,13.576 11.868,14.375 11.868,15.189 C11.868,16.598 12.476,17.916 13.513,18.786 C12.979,18.718 12.458,18.542 11.988,18.267 C11.956,18.248 11.917,18.249 11.885,18.268 C11.854,18.287 11.834,18.322 11.833,18.360 C11.833,18.360 11.832,18.419 11.832,18.419 C11.832,20.444 13.100,22.221 14.904,22.812 C14.429,22.892 13.936,22.887 13.452,22.789 C13.416,22.783 13.378,22.795 13.354,22.824 C13.330,22.853 13.321,22.894 13.333,22.931 C13.874,24.707 15.377,25.953 17.126,26.108 C15.667,27.233 13.942,27.825 12.119,27.825 C11.784,27.825 11.445,27.804 11.114,27.763 C11.067,27.758 11.020,27.787 11.003,27.835 C10.987,27.883 11.005,27.937 11.045,27.965 C13.018,29.295 15.298,29.999 17.641,29.999 C25.303,29.999 29.882,23.450 29.882,17.119 C29.882,16.943 29.879,16.768 29.872,16.593 C30.699,15.957 31.408,15.178 31.980,14.277 C32.006,14.236 32.003,14.183 31.973,14.145 Z" id="path-1" class="cls-4" fill-rule="evenodd"/>
  </g>
</svg>
