<svg xmlns="http://www.w3.org/2000/svg" xmlns:xlink="http://www.w3.org/1999/xlink" preserveAspectRatio="xMidYMid" width="42" height="42" viewBox="0 0 42 42">
  <defs>
    <style>

      .cls-3 {
        fill: #ffffff;
      }

      .cls-4 {
        fill: #00b1eb;
        filter: url(#color-overlay-1);
      }
    </style>

    <filter id="color-overlay-1" filterUnits="userSpaceOnUse">
      <feFlood flood-color="#00badf" flood-opacity="1"/>
      <feComposite operator="in" in2="SourceGraphic"/>
      <feBlend mode="normal" in2="SourceGraphic" result="colorOverlay"/>
    </filter>
  </defs>
  <g id="2-social-linkedinsvg">
    <circle id="circle-1" class="cls-3" cx="21" cy="21" r="21"/>
    <path d="M26.438,30.000 C26.438,30.000 26.438,24.495 26.438,24.495 C26.438,23.178 26.455,21.467 24.648,21.467 C22.815,21.467 22.552,23.014 22.552,24.495 C22.552,24.495 22.552,30.000 22.552,30.000 C22.552,30.000 18.990,30.000 18.990,30.000 C18.990,30.000 18.990,18.666 18.990,18.666 C18.990,18.666 22.390,18.666 22.390,18.666 C22.390,18.666 22.393,20.196 22.393,20.196 C22.393,20.196 22.440,20.196 22.440,20.196 C22.911,19.303 24.060,18.362 25.774,18.362 C29.341,18.362 30.000,20.790 30.000,23.847 C30.000,23.847 30.000,30.000 30.000,30.000 C30.000,30.000 26.438,30.000 26.438,30.000 ZM15.043,17.092 C13.914,17.092 13.000,16.175 13.000,15.045 C13.000,13.917 13.914,13.000 15.043,13.000 C16.169,13.000 17.085,13.917 17.085,15.045 C17.085,16.175 16.170,17.092 15.043,17.092 ZM16.724,30.000 C16.724,30.000 13.324,30.000 13.324,30.000 C13.324,30.000 13.324,18.666 13.324,18.666 C13.324,18.666 16.724,18.666 16.724,18.666 C16.724,18.666 16.724,30.000 16.724,30.000 Z" id="path-1" class="cls-4" fill-rule="evenodd"/>
  </g>
</svg>
