<svg xmlns="http://www.w3.org/2000/svg" xmlns:xlink="http://www.w3.org/1999/xlink" preserveAspectRatio="xMidYMid" width="42" height="42" viewBox="0 0 42 42">
  <defs>
    <style>

      .cls-3 {
        fill: #ffffff;
      }

      .cls-4 {
        fill: #00badf;
      }
    </style>
  </defs>
  <g id="2-social-instagramsvg">
    <circle id="circle-1" class="cls-3" cx="21" cy="21" r="21"/>
    <path d="M25.032,30.000 C25.032,30.000 16.967,30.000 16.967,30.000 C14.228,30.000 12.000,27.772 12.000,25.032 C12.000,25.032 12.000,16.967 12.000,16.967 C12.000,14.228 14.228,12.000 16.967,12.000 C16.967,12.000 25.032,12.000 25.032,12.000 C27.771,12.000 30.000,14.228 30.000,16.967 C30.000,16.967 30.000,25.032 30.000,25.032 C30.000,27.771 27.771,30.000 25.032,30.000 ZM28.403,25.032 C28.403,25.032 28.403,16.967 28.403,16.967 C28.403,15.109 26.891,13.597 25.032,13.597 C25.032,13.597 16.967,13.597 16.967,13.597 C15.109,13.597 13.597,15.109 13.597,16.967 C13.597,16.967 13.597,25.032 13.597,25.032 C13.597,26.891 15.109,28.403 16.967,28.403 C16.967,28.403 25.032,28.403 25.032,28.403 C26.891,28.403 28.403,26.891 28.403,25.032 C28.403,25.032 28.403,25.032 28.403,25.032 ZM25.832,17.350 C25.525,17.350 25.222,17.224 25.005,17.007 C24.787,16.789 24.661,16.487 24.661,16.179 C24.661,15.870 24.787,15.568 25.005,15.350 C25.222,15.132 25.525,15.007 25.832,15.007 C26.141,15.007 26.443,15.132 26.661,15.350 C26.879,15.568 27.004,15.870 27.004,16.179 C27.004,16.486 26.879,16.789 26.661,17.007 C26.442,17.224 26.141,17.350 25.832,17.350 ZM21.000,25.638 C18.442,25.638 16.362,23.557 16.362,21.000 C16.362,18.442 18.442,16.362 21.000,16.362 C23.557,16.362 25.638,18.442 25.638,21.000 C25.638,23.557 23.557,25.638 21.000,25.638 ZM21.000,17.959 C19.323,17.959 17.959,19.323 17.959,21.000 C17.959,22.677 19.323,24.041 21.000,24.041 C22.676,24.041 24.041,22.677 24.041,21.000 C24.041,19.323 22.677,17.959 21.000,17.959 Z" id="path-1" class="cls-4" fill-rule="evenodd"/>
  </g>
</svg>
