<svg xmlns="http://www.w3.org/2000/svg" xmlns:xlink="http://www.w3.org/1999/xlink" preserveAspectRatio="xMidYMid" width="42" height="42" viewBox="0 0 42 42">
  <defs>
    <style>

      .cls-3 {
        fill: #ffffff;
      }

      .cls-4 {
        fill: #2D63E2;
        filter: url(#color-overlay-1);
      }
    </style>

    <filter id="color-overlay-1" filterUnits="userSpaceOnUse">
      <feFlood flood-color="#2D63E2" flood-opacity="1"/>
      <feComposite operator="in" in2="SourceGraphic"/>
      <feBlend mode="normal" in2="SourceGraphic" result="colorOverlay"/>
    </filter>
  </defs>
  <g id="2-social-redditsvg">
    <circle id="circle-1" class="cls-3" cx="21" cy="21" r="21"/>
    <path d="M31.232,18.846 C32.758,18.846 34.000,20.152 34.000,21.757 C34.000,22.846 33.434,23.814 32.537,24.316 C32.584,24.606 32.614,24.899 32.614,25.198 C32.614,29.500 27.605,33.000 21.448,33.000 C15.291,33.000 10.282,29.500 10.282,25.198 C10.282,24.881 10.318,24.570 10.370,24.263 C9.531,23.745 9.000,22.795 9.000,21.756 C9.000,20.152 10.240,18.846 11.766,18.846 C12.463,18.846 13.127,19.137 13.637,19.632 C15.607,18.281 18.286,17.440 21.245,17.402 C21.245,17.402 22.968,11.674 22.968,11.674 C23.029,11.469 23.231,11.350 23.427,11.400 C23.427,11.400 27.935,12.516 27.935,12.516 C28.265,11.630 29.082,11.000 30.040,11.000 C31.288,11.000 32.303,12.067 32.303,13.379 C32.303,14.691 31.288,15.759 30.040,15.759 C28.791,15.759 27.776,14.691 27.776,13.379 C27.776,13.357 27.781,13.337 27.782,13.315 C27.782,13.315 23.599,12.279 23.599,12.279 C23.599,12.279 22.054,17.417 22.054,17.417 C24.883,17.523 27.438,18.360 29.325,19.673 C29.837,19.153 30.508,18.846 31.232,18.846 ZM30.040,14.944 C30.861,14.944 31.528,14.242 31.528,13.379 C31.528,12.516 30.861,11.814 30.040,11.814 C29.219,11.814 28.550,12.516 28.550,13.379 C28.550,14.242 29.219,14.944 30.040,14.944 ZM33.225,21.756 C33.225,20.601 32.331,19.661 31.232,19.661 C30.757,19.661 30.310,19.841 29.955,20.155 C31.105,21.102 31.936,22.241 32.338,23.494 C32.885,23.111 33.225,22.471 33.225,21.756 ZM11.766,19.661 C10.668,19.661 9.775,20.601 9.775,21.757 C9.775,22.427 10.083,23.044 10.581,23.433 C10.995,22.186 11.836,21.054 12.993,20.115 C12.644,19.827 12.214,19.661 11.766,19.661 ZM21.448,18.210 C15.718,18.210 11.057,21.345 11.057,25.198 C11.057,29.052 15.718,32.186 21.448,32.186 C27.177,32.186 31.839,29.052 31.839,25.198 C31.839,21.345 27.177,18.210 21.448,18.210 ZM25.300,25.486 C24.392,25.486 23.653,24.709 23.653,23.755 C23.653,22.799 24.392,22.022 25.300,22.022 C26.208,22.022 26.947,22.799 26.947,23.755 C26.947,24.709 26.208,25.486 25.300,25.486 ZM25.497,28.314 C25.648,28.473 25.648,28.730 25.497,28.890 C24.667,29.763 23.363,30.187 21.513,30.187 C21.509,30.187 21.505,30.184 21.500,30.184 C21.495,30.184 21.491,30.187 21.486,30.187 C19.635,30.187 18.332,29.763 17.502,28.890 C17.351,28.731 17.351,28.473 17.503,28.314 C17.654,28.155 17.899,28.155 18.051,28.314 C18.728,29.026 19.851,29.373 21.486,29.373 C21.491,29.373 21.495,29.375 21.500,29.375 C21.505,29.375 21.509,29.373 21.513,29.373 C23.148,29.373 24.271,29.026 24.949,28.314 C25.100,28.155 25.346,28.155 25.497,28.314 ZM17.706,25.486 C16.798,25.486 16.058,24.709 16.058,23.755 C16.058,22.799 16.798,22.022 17.706,22.022 C18.614,22.022 19.353,22.799 19.353,23.755 C19.353,24.709 18.614,25.486 17.706,25.486 Z" id="path-1" class="cls-4" fill-rule="evenodd"/>
  </g>
</svg>
