<svg xmlns="http://www.w3.org/2000/svg" xmlns:xlink="http://www.w3.org/1999/xlink" preserveAspectRatio="xMidYMid" width="42" height="42" viewBox="0 0 42 42">
  <defs>
    <style>

      .cls-3 {
        fill: #ffffff;
      }

      .cls-4 {
        fill: #00b1eb;
        filter: url(#color-overlay-1);
      }
    </style>

    <filter id="color-overlay-1" filterUnits="userSpaceOnUse">
      <feFlood flood-color="#00badf" flood-opacity="1"/>
      <feComposite operator="in" in2="SourceGraphic"/>
      <feBlend mode="normal" in2="SourceGraphic" result="colorOverlay"/>
    </filter>
  </defs>
  <g id="2-social-pinterestsvg">
    <circle id="circle-1" class="cls-3" cx="21" cy="21" r="21"/>
    <path d="M22.015,11.000 C16.022,11.000 13.001,15.305 13.001,18.895 C13.001,21.068 13.822,23.002 15.584,23.723 C15.872,23.841 16.132,23.727 16.216,23.407 C16.274,23.184 16.411,22.625 16.473,22.392 C16.557,22.075 16.524,21.964 16.291,21.688 C15.784,21.088 15.459,20.311 15.459,19.210 C15.459,16.016 17.843,13.157 21.668,13.157 C25.055,13.157 26.916,15.230 26.916,18.000 C26.916,21.644 25.306,24.720 22.917,24.720 C21.598,24.720 20.611,23.626 20.927,22.285 C21.306,20.684 22.040,18.956 22.040,17.801 C22.040,16.766 21.486,15.903 20.339,15.903 C18.991,15.903 17.907,17.301 17.907,19.174 C17.907,20.367 18.310,21.174 18.310,21.174 C18.310,21.174 16.929,27.035 16.688,28.061 C16.205,30.105 16.615,32.611 16.650,32.863 C16.670,33.013 16.862,33.049 16.949,32.936 C17.074,32.773 18.680,30.786 19.226,28.800 C19.381,28.238 20.113,25.326 20.113,25.326 C20.551,26.164 21.832,26.902 23.194,26.902 C27.248,26.902 29.999,23.198 29.999,18.240 C29.999,14.491 26.830,11.000 22.015,11.000 Z" id="path-1" class="cls-4" fill-rule="evenodd"/>
  </g>
</svg>
