<svg xmlns="http://www.w3.org/2000/svg" xmlns:xlink="http://www.w3.org/1999/xlink" preserveAspectRatio="xMidYMid" width="61" height="61" viewBox="0 0 61 61">
  <defs>
    <style>

      .cls-3 {
        fill: #ffffff;
        stroke: #ffffff;
        stroke-linejoin: round;
        stroke-width: 1px;
        fill-opacity: 0;
      }

      .cls-4 {
        fill: #ffffff;
      }
    </style>
  </defs>
  <g id="2svg">
    <circle id="circle-1" class="cls-3" cx="30" cy="30" r="30"/>
    <path d="M43.560,16.410 C41.655,14.504 38.556,14.504 36.651,16.410 C36.651,16.410 17.076,35.996 17.076,35.996 C17.067,36.005 17.061,36.017 17.053,36.026 C17.042,36.039 17.032,36.054 17.022,36.068 C16.993,36.108 16.971,36.151 16.954,36.198 C16.949,36.212 16.942,36.224 16.938,36.238 C16.937,36.244 16.933,36.249 16.932,36.255 C16.932,36.255 15.013,44.320 15.013,44.320 C15.004,44.356 15.002,44.393 15.001,44.430 C15.001,44.437 14.999,44.443 14.999,44.450 C14.999,44.512 15.013,44.573 15.034,44.631 C15.039,44.644 15.044,44.656 15.050,44.669 C15.077,44.727 15.110,44.783 15.157,44.830 C15.208,44.882 15.269,44.921 15.335,44.949 C15.400,44.976 15.470,44.989 15.541,44.989 C15.582,44.989 15.625,44.984 15.666,44.975 C15.666,44.975 23.727,43.055 23.727,43.055 C23.741,43.051 23.754,43.043 23.768,43.038 C23.787,43.032 23.804,43.025 23.822,43.017 C23.861,42.999 23.898,42.977 23.931,42.950 C23.944,42.940 23.958,42.932 23.970,42.921 C23.975,42.917 23.980,42.915 23.985,42.910 C23.985,42.910 43.560,23.323 43.560,23.323 C45.465,21.417 45.465,18.315 43.560,16.410 ZM42.793,17.178 C44.144,18.529 44.259,20.652 43.146,22.140 C43.146,22.140 37.833,16.824 37.833,16.824 C39.321,15.711 41.442,15.826 42.793,17.178 ZM40.106,25.243 C40.106,25.243 34.732,19.866 34.732,19.866 C34.732,19.866 35.500,19.098 35.500,19.098 C35.500,19.098 40.874,24.475 40.874,24.475 C40.874,24.475 40.106,25.243 40.106,25.243 ZM17.692,42.294 C17.479,42.081 17.136,42.081 16.924,42.294 C16.924,42.294 16.513,42.705 16.513,42.705 C16.513,42.705 17.900,36.878 17.900,36.878 C17.900,36.878 20.300,36.611 20.300,36.611 C20.300,36.611 19.991,39.393 19.991,39.393 C19.989,39.414 19.996,39.433 19.996,39.453 C19.996,39.474 19.989,39.492 19.991,39.513 C19.993,39.531 20.002,39.545 20.006,39.563 C20.013,39.594 20.022,39.623 20.033,39.652 C20.048,39.688 20.064,39.720 20.085,39.751 C20.102,39.776 20.119,39.798 20.139,39.820 C20.165,39.847 20.193,39.871 20.224,39.892 C20.249,39.909 20.272,39.925 20.299,39.938 C20.335,39.955 20.373,39.965 20.412,39.974 C20.432,39.979 20.449,39.990 20.470,39.993 C20.490,39.995 20.509,39.996 20.529,39.996 C20.529,39.996 20.530,39.996 20.530,39.996 C20.530,39.996 20.531,39.996 20.531,39.996 C20.531,39.996 20.531,39.996 20.531,39.996 C20.531,39.996 20.532,39.996 20.532,39.996 C20.551,39.996 20.571,39.995 20.591,39.993 C20.591,39.993 23.371,39.684 23.371,39.684 C23.371,39.684 23.105,42.086 23.105,42.086 C23.105,42.086 17.281,43.473 17.281,43.473 C17.281,43.473 17.692,43.062 17.692,43.062 C17.903,42.850 17.903,42.506 17.692,42.294 ZM24.504,39.318 C24.504,39.318 36.651,27.163 36.651,27.163 C36.863,26.951 36.863,26.607 36.651,26.395 C36.439,26.183 36.096,26.183 35.884,26.395 C35.884,26.395 23.736,38.550 23.736,38.550 C23.736,38.550 21.146,38.838 21.146,38.838 C21.146,38.838 21.433,36.245 21.433,36.245 C21.433,36.245 33.581,24.091 33.581,24.091 C33.794,23.879 33.794,23.535 33.581,23.323 C33.369,23.111 33.026,23.111 32.814,23.323 C32.814,23.323 20.666,35.477 20.666,35.477 C20.666,35.477 18.938,35.670 18.938,35.670 C18.938,35.670 33.965,20.634 33.965,20.634 C33.965,20.634 39.339,26.011 39.339,26.011 C39.339,26.011 24.312,41.047 24.312,41.047 C24.312,41.047 24.504,39.318 24.504,39.318 ZM41.641,23.707 C41.641,23.707 36.267,18.330 36.267,18.330 C36.267,18.330 37.035,17.562 37.035,17.562 C37.035,17.562 42.409,22.939 42.409,22.939 C42.409,22.939 41.641,23.707 41.641,23.707 Z" id="path-1" class="cls-4" fill-rule="evenodd"/>
  </g>
</svg>
