<svg xmlns="http://www.w3.org/2000/svg" xmlns:xlink="http://www.w3.org/1999/xlink" preserveAspectRatio="xMidYMid" width="61" height="61" viewBox="0 0 61 61">
  <defs>
    <style>

      .cls-3 {
        fill: #ffffff;
        stroke: #ffffff;
        stroke-linejoin: round;
        stroke-width: 1px;
        fill-opacity: 0;
      }

      .cls-4 {
        fill: #ffffff;
      }
    </style>
  </defs>
  <g id="3svg">
    <circle id="circle-1" class="cls-3" cx="30" cy="30" r="30"/>
    <path d="M44.248,38.391 C44.248,38.391 38.995,35.787 38.995,35.787 C38.500,35.541 38.192,35.048 38.192,34.498 C38.192,34.498 38.192,32.655 38.192,32.655 C38.318,32.502 38.450,32.328 38.587,32.137 C39.268,31.182 39.814,30.121 40.211,28.975 C40.987,28.622 41.491,27.862 41.491,27.003 C41.491,27.003 41.491,24.823 41.491,24.823 C41.491,24.298 41.293,23.789 40.941,23.392 C40.941,23.392 40.941,20.492 40.941,20.492 C40.972,20.192 41.093,18.408 39.791,16.935 C38.661,15.658 36.829,15.010 34.343,15.010 C31.857,15.010 30.025,15.658 28.896,16.935 C28.107,17.827 27.841,18.832 27.761,19.554 C26.818,19.071 25.708,18.826 24.446,18.826 C18.734,18.826 18.402,23.653 18.398,23.733 C18.398,23.733 18.398,26.229 18.398,26.229 C18.042,26.614 17.849,27.058 17.849,27.499 C17.849,27.499 17.849,29.382 17.849,29.382 C17.849,29.970 18.114,30.519 18.569,30.889 C19.023,32.585 20.139,33.866 20.573,34.315 C20.573,34.315 20.573,35.811 20.573,35.811 C20.573,36.240 20.338,36.633 19.929,36.855 C19.929,36.855 16.271,39.130 16.271,39.130 C14.870,39.887 14.000,41.341 14.000,42.923 C14.000,42.923 14.000,44.993 14.000,44.993 C14.000,44.993 21.697,44.993 21.697,44.993 C21.697,44.993 22.797,44.993 22.797,44.993 C22.797,44.993 46.989,44.993 46.989,44.993 C46.989,44.993 46.989,42.789 46.989,42.789 C46.989,40.915 45.938,39.229 44.248,38.391 ZM21.697,42.683 C21.697,42.683 21.697,43.903 21.697,43.903 C21.697,43.903 15.099,43.903 15.099,43.903 C15.099,43.903 15.099,42.923 15.099,42.923 C15.099,41.740 15.751,40.653 16.826,40.070 C16.826,40.070 20.484,37.796 20.484,37.796 C21.217,37.399 21.672,36.639 21.672,35.811 C21.672,35.811 21.672,33.853 21.672,33.853 C21.672,33.853 21.497,33.691 21.497,33.691 C21.483,33.678 20.022,32.310 19.590,30.445 C19.590,30.445 19.540,30.229 19.540,30.229 C19.540,30.229 19.352,30.109 19.352,30.109 C19.099,29.947 18.948,29.675 18.948,29.382 C18.948,29.382 18.948,27.499 18.948,27.499 C18.948,27.303 19.083,27.069 19.317,26.859 C19.317,26.859 19.498,26.697 19.498,26.697 C19.498,26.697 19.497,23.764 19.497,23.764 C19.507,23.608 19.793,19.917 24.446,19.917 C25.762,19.917 26.870,20.218 27.745,20.813 C27.745,20.813 27.745,23.392 27.745,23.392 C27.394,23.789 27.196,24.298 27.196,24.823 C27.196,24.823 27.196,27.003 27.196,27.003 C27.196,27.169 27.215,27.332 27.251,27.490 C27.266,27.553 27.296,27.611 27.316,27.672 C27.346,27.764 27.370,27.858 27.413,27.945 C27.413,27.946 27.414,27.947 27.414,27.948 C27.555,28.235 27.760,28.493 28.019,28.698 C28.021,28.709 28.025,28.718 28.027,28.728 C28.060,28.853 28.095,28.977 28.132,29.098 C28.132,29.098 28.177,29.241 28.177,29.241 C28.185,29.266 28.194,29.291 28.202,29.316 C28.221,29.375 28.240,29.434 28.260,29.491 C28.293,29.587 28.328,29.685 28.368,29.793 C28.385,29.838 28.403,29.878 28.421,29.922 C28.466,30.036 28.511,30.146 28.559,30.255 C28.570,30.281 28.580,30.310 28.591,30.335 C28.591,30.335 28.622,30.404 28.622,30.404 C28.637,30.436 28.651,30.464 28.666,30.495 C28.720,30.612 28.772,30.725 28.827,30.834 C28.836,30.851 28.844,30.870 28.853,30.888 C28.888,30.956 28.923,31.020 28.957,31.085 C29.017,31.198 29.075,31.304 29.133,31.406 C29.162,31.456 29.190,31.505 29.218,31.553 C29.297,31.687 29.372,31.810 29.445,31.924 C29.461,31.949 29.477,31.975 29.492,31.998 C29.625,32.202 29.741,32.368 29.836,32.497 C29.862,32.532 29.884,32.561 29.905,32.590 C29.917,32.606 29.934,32.629 29.944,32.643 C29.944,32.643 29.944,34.447 29.944,34.447 C29.944,34.975 29.654,35.459 29.187,35.712 C29.187,35.712 27.732,36.498 27.732,36.498 C27.732,36.498 27.479,36.476 27.479,36.476 C27.479,36.476 27.375,36.691 27.375,36.691 C27.375,36.691 24.282,38.364 24.282,38.364 C22.688,39.228 21.697,40.882 21.697,42.683 ZM45.889,43.903 C45.889,43.903 22.797,43.903 22.797,43.903 C22.797,43.903 22.797,42.683 22.797,42.683 C22.797,41.281 23.568,39.993 24.809,39.323 C24.809,39.323 29.714,36.670 29.714,36.670 C30.535,36.226 31.044,35.374 31.044,34.447 C31.044,34.447 31.044,32.257 31.044,32.257 C31.044,32.257 31.044,32.256 31.044,32.256 C31.044,32.256 30.938,32.130 30.938,32.130 C30.938,32.130 30.917,32.105 30.917,32.105 C30.916,32.104 30.882,32.063 30.826,31.991 C30.823,31.987 30.819,31.982 30.816,31.978 C30.786,31.940 30.752,31.895 30.713,31.841 C30.713,31.840 30.712,31.839 30.712,31.838 C30.630,31.725 30.527,31.579 30.413,31.402 C30.410,31.398 30.408,31.394 30.405,31.390 C30.351,31.307 30.294,31.216 30.236,31.119 C30.231,31.112 30.227,31.105 30.222,31.097 C30.098,30.891 29.966,30.657 29.835,30.398 C29.835,30.398 29.834,30.397 29.834,30.397 C29.764,30.258 29.694,30.112 29.626,29.960 C29.626,29.960 29.626,29.960 29.626,29.960 C29.617,29.938 29.607,29.918 29.598,29.897 C29.598,29.897 29.598,29.897 29.598,29.897 C29.567,29.828 29.537,29.757 29.506,29.683 C29.495,29.657 29.484,29.629 29.473,29.602 C29.445,29.530 29.416,29.458 29.385,29.376 C29.329,29.228 29.276,29.073 29.225,28.913 C29.225,28.913 29.195,28.816 29.195,28.816 C29.192,28.805 29.188,28.794 29.185,28.783 C29.133,28.610 29.084,28.434 29.042,28.253 C29.042,28.253 28.992,28.038 28.992,28.038 C28.992,28.038 28.804,27.918 28.804,27.918 C28.485,27.714 28.295,27.372 28.295,27.003 C28.295,27.003 28.295,24.823 28.295,24.823 C28.295,24.517 28.426,24.232 28.664,24.019 C28.664,24.019 28.845,23.857 28.845,23.857 C28.845,23.857 28.845,20.462 28.845,20.462 C28.845,20.462 28.845,20.269 28.845,20.269 C28.845,20.269 28.830,20.257 28.830,20.257 C28.811,19.864 28.835,18.657 29.722,17.654 C30.634,16.623 32.188,16.101 34.343,16.101 C36.490,16.101 38.042,16.619 38.954,17.642 C40.024,18.842 39.847,20.377 39.846,20.390 C39.846,20.390 39.841,23.857 39.841,23.857 C39.841,23.857 40.023,24.019 40.023,24.019 C40.260,24.232 40.391,24.517 40.391,24.823 C40.391,24.823 40.391,27.003 40.391,27.003 C40.391,27.479 40.077,27.896 39.609,28.039 C39.609,28.039 39.336,28.122 39.336,28.122 C39.336,28.122 39.248,28.392 39.248,28.392 C38.880,29.526 38.356,30.574 37.689,31.506 C37.526,31.736 37.367,31.939 37.229,32.094 C37.229,32.094 37.092,32.249 37.092,32.249 C37.092,32.249 37.092,34.498 37.092,34.498 C37.092,35.463 37.633,36.330 38.503,36.762 C38.503,36.762 43.756,39.366 43.756,39.366 C45.072,40.018 45.889,41.330 45.889,42.789 C45.889,42.789 45.889,43.903 45.889,43.903 Z" id="path-1" class="cls-4" fill-rule="evenodd"/>
  </g>
</svg>
