<svg xmlns="http://www.w3.org/2000/svg" xmlns:xlink="http://www.w3.org/1999/xlink" preserveAspectRatio="xMidYMid" width="17" height="17" viewBox="0 0 17 17">
  <defs>
    <style>

      .cls-2 {
        fill: #e74c3c;
      }
    </style>
  </defs>
  <path d="M16.985,15.571 C16.985,15.571 15.571,16.985 15.571,16.985 C15.571,16.985 8.500,9.914 8.500,9.914 C8.500,9.914 1.429,16.985 1.429,16.985 C1.429,16.985 0.015,15.571 0.015,15.571 C0.015,15.571 7.086,8.500 7.086,8.500 C7.086,8.500 0.015,1.429 0.015,1.429 C0.015,1.429 1.429,0.015 1.429,0.015 C1.429,0.015 8.500,7.086 8.500,7.086 C8.500,7.086 15.571,0.015 15.571,0.015 C15.571,0.015 16.985,1.429 16.985,1.429 C16.985,1.429 9.914,8.500 9.914,8.500 C9.914,8.500 16.985,15.571 16.985,15.571 Z" id="path-1" class="cls-2" fill-rule="evenodd"/>
</svg>
