<svg xmlns="http://www.w3.org/2000/svg" xmlns:xlink="http://www.w3.org/1999/xlink" preserveAspectRatio="xMidYMid" width="10" height="7" viewBox="0 0 10 7">
  <defs>
    <style>

      .cls-2 {
        fill: #00badf;
      }
    </style>
  </defs>
  <path d="M0.115,3.850 C0.038,3.780 -0.000,3.675 -0.000,3.605 C-0.000,3.535 0.038,3.430 0.115,3.360 C0.115,3.360 0.654,2.870 0.654,2.870 C0.808,2.730 1.038,2.730 1.192,2.870 C1.192,2.870 1.231,2.905 1.231,2.905 C1.231,2.905 3.346,4.970 3.346,4.970 C3.423,5.040 3.538,5.040 3.615,4.970 C3.615,4.970 8.769,0.105 8.769,0.105 C8.769,0.105 8.807,0.105 8.807,0.105 C8.807,0.105 8.807,0.105 8.807,0.105 C8.807,0.105 8.807,0.105 8.807,0.105 C8.961,-0.035 9.192,-0.035 9.346,0.105 C9.346,0.105 9.884,0.595 9.884,0.595 C10.038,0.735 10.038,0.945 9.884,1.085 C9.884,1.085 9.884,1.085 9.884,1.085 C9.884,1.085 9.884,1.085 9.884,1.085 C9.884,1.085 3.731,6.895 3.731,6.895 C3.654,6.965 3.577,7.000 3.461,7.000 C3.346,7.000 3.269,6.965 3.192,6.895 C3.192,6.895 0.192,3.955 0.192,3.955 C0.192,3.955 0.115,3.850 0.115,3.850 Z" id="path-1" class="cls-2" fill-rule="evenodd"/>
</svg>
