<svg xmlns="http://www.w3.org/2000/svg" xmlns:xlink="http://www.w3.org/1999/xlink" preserveAspectRatio="xMidYMid" width="21" height="20" viewBox="0 0 21 20">
  <defs>
    <style>

      .cls-2 {
        fill: #bfbfbf;
      }
    </style>
  </defs>
  <path d="M17.089,2.918 C15.197,1.029 12.683,-0.013 10.006,-0.013 C7.329,-0.013 4.816,1.029 2.923,2.918 C-0.727,6.561 -0.991,12.382 2.260,16.327 C1.811,17.244 1.283,17.855 0.683,18.148 C0.318,18.328 0.112,18.722 0.171,19.124 C0.234,19.530 0.544,19.844 0.951,19.907 C1.174,19.940 1.413,19.962 1.660,19.962 C1.660,19.962 1.660,19.962 1.660,19.962 C2.890,19.962 4.182,19.539 5.261,18.797 C6.712,19.577 8.345,19.987 10.006,19.987 C12.683,19.987 15.197,18.948 17.089,17.060 C18.982,15.171 20.022,12.658 20.022,9.991 C20.022,7.323 18.982,4.806 17.089,2.918 ZM16.288,16.255 C14.609,17.930 12.377,18.852 10.006,18.852 C8.420,18.852 6.864,18.429 5.508,17.633 C5.420,17.583 5.319,17.553 5.223,17.553 C5.101,17.553 4.975,17.596 4.874,17.671 C3.591,18.663 2.298,18.810 1.732,18.822 C2.407,18.320 2.974,17.541 3.448,16.456 C3.536,16.255 3.498,16.021 3.351,15.854 C0.246,12.352 0.410,7.018 3.725,3.710 C5.403,2.034 7.635,1.113 10.006,1.113 C12.377,1.113 14.609,2.034 16.288,3.710 C19.754,7.172 19.754,12.801 16.288,16.255 Z" id="path-1" class="cls-2" fill-rule="evenodd"/>
</svg>
