<svg xmlns="http://www.w3.org/2000/svg" xmlns:xlink="http://www.w3.org/1999/xlink" preserveAspectRatio="xMidYMid" width="11" height="21" viewBox="0 0 11 21">
  <defs>
    <style>

      .cls-2 {
        fill: #00badf;
      }
    </style>
  </defs>
  <path d="M11.000,3.553 C11.000,3.553 8.957,3.553 8.957,3.553 C7.394,3.553 7.228,4.249 7.228,5.330 C7.228,5.330 7.228,7.753 7.228,7.753 C7.228,7.753 10.843,7.753 10.843,7.753 C10.843,7.753 10.843,11.469 10.843,11.469 C10.843,11.469 7.228,11.469 7.228,11.469 C7.228,11.469 7.228,21.000 7.228,21.000 C7.228,21.000 3.300,21.000 3.300,21.000 C3.300,21.000 3.300,11.469 3.300,11.469 C3.300,11.469 -0.000,11.469 -0.000,11.469 C-0.000,11.469 -0.000,7.753 -0.000,7.753 C-0.000,7.753 3.300,7.753 3.300,7.753 C3.300,7.753 3.300,5.007 3.300,5.007 C3.300,1.812 5.220,-0.000 8.094,-0.000 C8.094,-0.000 11.000,0.004 11.000,0.004 C11.000,0.004 11.000,3.486 11.000,3.486 C11.000,3.486 11.000,3.553 11.000,3.553 Z" id="path-1" class="cls-2" fill-rule="evenodd"/>
</svg>
