<svg xmlns="http://www.w3.org/2000/svg" xmlns:xlink="http://www.w3.org/1999/xlink" preserveAspectRatio="xMidYMid" width="20" height="20" viewBox="0 0 25 20">
  <defs>
    <style>

      .cls-2 {
        fill: #00badf;
      }
    </style>
  </defs>
  <path d="M23.074,5.999 C23.074,5.999 22.073,5.999 22.073,5.999 C22.073,5.999 22.073,4.000 22.073,4.000 C22.073,3.415 21.675,3.000 21.073,3.000 C21.073,3.000 11.068,3.000 11.068,3.000 C11.068,3.000 8.673,-0.001 8.673,-0.001 C8.673,-0.001 1.156,-0.001 1.156,-0.001 C0.553,-0.001 0.062,0.475 0.062,1.059 C0.062,1.059 0.062,17.999 0.062,17.999 C0.062,17.999 0.065,17.999 0.065,17.999 C0.063,18.217 -0.078,18.821 0.062,19.000 C0.258,19.248 0.741,19.999 1.063,19.999 C1.063,19.999 19.072,19.999 19.072,19.999 C19.534,19.999 19.871,18.697 19.982,18.296 C19.982,18.296 24.074,7.424 24.074,7.424 C24.074,7.424 24.074,7.356 24.074,7.356 C24.074,6.688 23.656,5.999 23.074,5.999 ZM0.863,1.059 C0.863,0.902 0.994,0.775 1.156,0.775 C1.156,0.775 8.260,0.775 8.260,0.775 C8.260,0.775 10.067,4.000 10.067,4.000 C10.067,4.000 20.072,4.000 20.072,4.000 C20.234,4.000 21.073,3.843 21.073,4.000 C21.073,4.000 21.073,5.999 21.073,5.999 C21.073,5.999 5.065,5.999 5.065,5.999 C5.007,5.999 5.120,5.990 5.065,5.999 C4.676,6.063 4.274,6.556 4.177,6.906 C4.177,6.906 0.863,15.664 0.863,15.664 C0.863,15.664 0.863,1.059 0.863,1.059 ZM19.220,18.063 C19.193,18.157 19.173,19.000 19.072,19.000 C19.072,19.000 1.063,19.000 1.063,19.000 C0.966,19.000 0.935,18.170 0.910,18.138 C0.884,18.106 0.846,18.039 0.860,17.980 C0.860,17.980 4.939,7.141 4.939,7.141 C4.965,7.046 5.055,6.979 5.157,6.979 C5.157,6.979 21.673,6.979 21.673,6.979 C21.673,6.979 23.070,6.979 23.070,6.979 C23.222,6.979 23.261,7.191 23.271,7.297 C23.271,7.297 19.220,18.063 19.220,18.063 Z" id="path-1" class="cls-2" fill-rule="evenodd"/>
</svg>
