<svg xmlns="http://www.w3.org/2000/svg" xmlns:xlink="http://www.w3.org/1999/xlink" preserveAspectRatio="xMidYMid" width="18" height="18" viewBox="0 0 18 18">
  <defs>
    <style>

      .cls-2 {
        fill: #00badf;
      }
    </style>
  </defs>
  <path d="M13.032,18.000 C13.032,18.000 4.967,18.000 4.967,18.000 C2.228,18.000 -0.000,15.772 -0.000,13.032 C-0.000,13.032 -0.000,4.967 -0.000,4.967 C-0.000,2.228 2.228,-0.000 4.967,-0.000 C4.967,-0.000 13.032,-0.000 13.032,-0.000 C15.771,-0.000 18.000,2.228 18.000,4.967 C18.000,4.967 18.000,13.032 18.000,13.032 C18.000,15.771 15.771,18.000 13.032,18.000 ZM16.403,13.032 C16.403,13.032 16.403,4.967 16.403,4.967 C16.403,3.109 14.891,1.597 13.032,1.597 C13.032,1.597 4.967,1.597 4.967,1.597 C3.109,1.597 1.597,3.109 1.597,4.967 C1.597,4.967 1.597,13.032 1.597,13.032 C1.597,14.891 3.109,16.403 4.967,16.403 C4.967,16.403 13.032,16.403 13.032,16.403 C14.891,16.403 16.403,14.891 16.403,13.032 C16.403,13.032 16.403,13.032 16.403,13.032 ZM13.832,5.350 C13.525,5.350 13.222,5.224 13.005,5.007 C12.787,4.789 12.661,4.487 12.661,4.179 C12.661,3.870 12.787,3.568 13.005,3.350 C13.223,3.132 13.525,3.008 13.832,3.008 C14.141,3.008 14.444,3.132 14.661,3.350 C14.879,3.568 15.004,3.870 15.004,4.179 C15.004,4.487 14.879,4.789 14.661,5.007 C14.443,5.224 14.141,5.350 13.832,5.350 ZM9.000,13.638 C6.442,13.638 4.362,11.557 4.362,9.000 C4.362,6.443 6.442,4.362 9.000,4.362 C11.557,4.362 13.638,6.443 13.638,9.000 C13.638,11.557 11.557,13.638 9.000,13.638 ZM9.000,5.959 C7.323,5.959 5.959,7.323 5.959,9.000 C5.959,10.677 7.323,12.041 9.000,12.041 C10.677,12.041 12.041,10.677 12.041,9.000 C12.041,7.323 10.677,5.959 9.000,5.959 Z" id="path-1" class="cls-2" fill-rule="evenodd"/>
</svg>
