<svg xmlns="http://www.w3.org/2000/svg" xmlns:xlink="http://www.w3.org/1999/xlink" preserveAspectRatio="xMidYMid" width="50" height="32" viewBox="0 0 50 32">
  <defs>
    <style>

      .cls-2 {
        fill: #2D63E2;
      }
    </style>
  </defs>
  <path d="M48.540,19.701 C48.540,19.701 48.540,19.701 48.540,19.701 C48.540,19.701 20.714,29.961 20.714,29.961 C20.461,30.054 20.199,30.100 19.937,30.100 C19.619,30.100 19.301,30.032 19.003,29.895 C18.460,29.646 18.047,29.202 17.840,28.643 C17.840,28.643 12.133,13.270 12.133,13.270 C11.926,12.711 11.949,12.106 12.199,11.565 C12.449,11.023 12.895,10.612 13.455,10.405 C13.455,10.405 41.281,0.145 41.281,0.145 C41.842,-0.061 42.449,-0.038 42.992,0.211 C43.535,0.459 43.948,0.904 44.156,1.463 C44.156,1.463 49.862,16.836 49.862,16.836 C50.290,17.989 49.697,19.274 48.540,19.701 ZM45.743,18.355 C45.743,18.355 34.281,14.771 34.281,14.771 C34.281,14.771 32.510,17.296 32.510,17.296 C32.297,17.598 31.953,17.772 31.593,17.772 C31.501,17.772 31.407,17.760 31.314,17.737 C31.314,17.737 28.322,16.969 28.322,16.969 C28.322,16.969 21.958,27.124 21.958,27.124 C21.958,27.124 45.743,18.355 45.743,18.355 ZM19.535,26.783 C19.535,26.783 26.049,16.387 26.049,16.387 C26.049,16.387 14.585,13.448 14.585,13.448 C14.585,13.448 19.535,26.783 19.535,26.783 ZM16.537,11.647 C16.537,11.647 31.121,15.384 31.121,15.384 C31.121,15.384 39.752,3.087 39.752,3.087 C39.752,3.087 16.537,11.647 16.537,11.647 ZM42.411,3.188 C42.411,3.188 35.627,12.855 35.627,12.855 C35.627,12.855 47.362,16.524 47.362,16.524 C47.362,16.524 42.411,3.188 42.411,3.188 ZM13.030,28.948 C13.244,29.526 12.948,30.167 12.369,30.381 C12.369,30.381 8.154,31.935 8.154,31.935 C8.026,31.982 7.895,32.004 7.766,32.004 C7.311,32.004 6.883,31.726 6.716,31.276 C6.502,30.699 6.798,30.058 7.377,29.844 C7.377,29.844 11.593,28.290 11.593,28.290 C12.172,28.076 12.816,28.371 13.030,28.948 ZM6.664,20.031 C6.664,20.031 4.062,20.990 4.062,20.990 C3.934,21.038 3.802,21.060 3.674,21.060 C3.219,21.060 2.791,20.782 2.624,20.332 C2.410,19.754 2.706,19.113 3.285,18.899 C3.285,18.899 5.887,17.940 5.887,17.940 C6.467,17.726 7.110,18.021 7.325,18.599 C7.539,19.176 7.243,19.818 6.664,20.031 ZM4.099,27.044 C4.313,27.621 4.018,28.263 3.438,28.476 C3.438,28.476 1.505,29.189 1.505,29.189 C1.377,29.236 1.245,29.259 1.117,29.259 C0.662,29.259 0.234,28.980 0.067,28.530 C-0.147,27.953 0.149,27.312 0.728,27.098 C0.728,27.098 2.662,26.385 2.662,26.385 C3.241,26.172 3.885,26.466 4.099,27.044 Z" id="path-1" class="cls-2" fill-rule="evenodd"/>
</svg>
