<svg xmlns="http://www.w3.org/2000/svg" xmlns:xlink="http://www.w3.org/1999/xlink" preserveAspectRatio="xMidYMid" width="20" height="17" viewBox="0 0 20 17">
  <defs>
    <style>

      .cls-2 {
        fill: #00ff00;
      }
    </style>
  </defs>
  <path d="M18.375,1.569 C17.328,0.557 15.943,0.004 14.464,0.004 C12.985,0.004 11.595,0.561 10.548,1.574 C10.548,1.574 10.001,2.103 10.001,2.103 C10.001,2.103 9.446,1.565 9.446,1.565 C8.399,0.553 7.005,-0.009 5.526,-0.009 C4.051,-0.009 2.661,0.549 1.619,1.557 C0.572,2.570 -0.004,3.914 -0.000,5.345 C-0.000,6.776 0.581,8.116 1.627,9.129 C1.627,9.129 9.586,16.827 9.586,16.827 C9.696,16.934 9.844,16.991 9.988,16.991 C10.133,16.991 10.281,16.938 10.391,16.831 C10.391,16.831 18.367,9.145 18.367,9.145 C19.413,8.133 19.990,6.788 19.990,5.357 C19.994,3.927 19.422,2.582 18.375,1.569 ZM17.561,8.362 C17.561,8.362 9.988,15.659 9.988,15.659 C9.988,15.659 2.432,8.350 2.432,8.350 C1.602,7.547 1.144,6.481 1.144,5.345 C1.144,4.209 1.598,3.144 2.428,2.344 C3.255,1.545 4.356,1.102 5.526,1.102 C6.700,1.102 7.806,1.545 8.637,2.348 C8.637,2.348 9.594,3.275 9.594,3.275 C9.819,3.492 10.179,3.492 10.404,3.275 C10.404,3.275 11.353,2.357 11.353,2.357 C12.184,1.553 13.290,1.110 14.459,1.110 C15.629,1.110 16.731,1.553 17.561,2.353 C18.392,3.156 18.845,4.222 18.845,5.357 C18.850,6.493 18.392,7.559 17.561,8.362 Z" id="path-1" class="cls-2" fill-rule="evenodd"/>
</svg>
