<svg xmlns="http://www.w3.org/2000/svg" xmlns:xlink="http://www.w3.org/1999/xlink" preserveAspectRatio="xMidYMid" width="21" height="17" viewBox="0 0 21 17">
  <defs>
    <style>

      .cls-2 {
        fill: #bfbfbf;
      }
    </style>
  </defs>
  <path d="M18.423,1.565 C17.374,0.552 15.986,-0.001 14.504,-0.001 C13.022,-0.001 11.629,0.556 10.580,1.569 C10.580,1.569 10.032,2.098 10.032,2.098 C10.032,2.098 9.476,1.561 9.476,1.561 C8.427,0.548 7.030,-0.013 5.549,-0.013 C4.071,-0.013 2.678,0.544 1.633,1.552 C0.585,2.565 0.007,3.910 0.011,5.340 C0.011,6.771 0.593,8.111 1.642,9.124 C1.642,9.124 9.616,16.822 9.616,16.822 C9.727,16.930 9.875,16.986 10.020,16.986 C10.164,16.986 10.313,16.933 10.423,16.827 C10.423,16.827 18.415,9.140 18.415,9.140 C19.463,8.128 20.041,6.783 20.041,5.353 C20.045,3.922 19.472,2.577 18.423,1.565 ZM17.608,8.358 C17.608,8.358 10.020,15.655 10.020,15.655 C10.020,15.655 2.449,8.345 2.449,8.345 C1.616,7.542 1.158,6.476 1.158,5.340 C1.158,4.204 1.612,3.139 2.444,2.340 C3.273,1.540 4.376,1.098 5.549,1.098 C6.725,1.098 7.833,1.540 8.665,2.344 C8.665,2.344 9.625,3.270 9.625,3.270 C9.850,3.487 10.211,3.487 10.436,3.270 C10.436,3.270 11.387,2.352 11.387,2.352 C12.219,1.548 13.328,1.106 14.500,1.106 C15.671,1.106 16.775,1.548 17.608,2.348 C18.440,3.151 18.894,4.217 18.894,5.353 C18.899,6.488 18.440,7.554 17.608,8.358 Z" id="path-1" class="cls-2" fill-rule="evenodd"/>
</svg>
