<svg xmlns="http://www.w3.org/2000/svg" xmlns:xlink="http://www.w3.org/1999/xlink" preserveAspectRatio="xMidYMid" width="810" height="12" viewBox="0 0 810 12">
  <defs>
    <style>

      .cls-2 {
        fill: #f5f5f5;
      }
    </style>
  </defs>
  <path d="M-0.015,1.987 C-0.015,1.987 -0.015,-0.013 -0.015,-0.013 C-0.015,-0.013 9.985,-0.013 9.985,-0.013 C9.985,-0.013 19.985,9.987 19.985,9.987 C19.985,9.987 29.986,-0.013 29.986,-0.013 C29.986,-0.013 809.999,-0.013 809.999,-0.013 C809.999,-0.013 809.999,1.987 809.999,1.987 C809.999,1.987 29.986,1.987 29.986,1.987 C29.986,1.987 19.985,11.987 19.985,11.987 C19.985,11.987 9.985,1.987 9.985,1.987 C9.985,1.987 -0.015,1.987 -0.015,1.987 Z" id="path-1" class="cls-2" fill-rule="evenodd"/>
</svg>
