<svg xmlns="http://www.w3.org/2000/svg" xmlns:xlink="http://www.w3.org/1999/xlink" preserveAspectRatio="xMidYMid" width="15" height="16" viewBox="0 0 15 16">
  <defs>
    <style>

      .cls-2 {
        fill: #ffffff;
        filter: url(#color-overlay-1);
      }
    </style>

    <filter id="color-overlay-1" filterUnits="userSpaceOnUse">
      <feFlood flood-color="#00badf" flood-opacity="1"/>
      <feComposite operator="in" in2="SourceGraphic"/>
      <feBlend mode="normal" in2="SourceGraphic" result="colorOverlay"/>
    </filter>
  </defs>
  <path d="M14.861,8.329 C14.861,8.329 11.914,11.242 11.914,11.242 C11.825,11.334 11.704,11.378 11.588,11.378 C11.471,11.378 11.351,11.330 11.261,11.242 C11.079,11.062 11.079,10.774 11.261,10.594 C11.261,10.594 13.418,8.461 13.418,8.461 C13.418,8.461 4.011,8.461 4.011,8.461 C3.754,8.461 3.548,8.257 3.548,8.003 C3.548,7.748 3.754,7.544 4.011,7.544 C4.011,7.544 13.418,7.544 13.418,7.544 C13.418,7.544 11.261,5.412 11.261,5.412 C11.079,5.232 11.079,4.944 11.261,4.764 C11.443,4.583 11.735,4.583 11.917,4.764 C11.917,4.764 14.864,7.677 14.864,7.677 C15.046,7.854 15.046,8.145 14.861,8.329 ZM7.295,0.916 C7.295,0.916 3.005,0.916 3.005,0.916 C1.861,0.916 0.927,1.837 0.927,2.971 C0.927,2.971 0.927,13.028 0.927,13.028 C0.927,14.159 1.858,15.083 3.005,15.083 C3.005,15.083 7.226,15.083 7.226,15.083 C7.480,15.083 7.689,15.286 7.689,15.541 C7.689,15.796 7.483,16.000 7.226,16.000 C7.226,16.000 3.005,16.000 3.005,16.000 C1.350,16.000 -0.000,14.669 -0.000,13.028 C-0.000,13.028 -0.000,2.971 -0.000,2.971 C-0.000,1.334 1.346,-0.000 3.005,-0.000 C3.005,-0.000 7.295,-0.000 7.295,-0.000 C7.552,-0.000 7.758,0.204 7.758,0.458 C7.758,0.713 7.552,0.916 7.295,0.916 Z" id="path-1" class="cls-2" fill-rule="evenodd"/>
</svg>
