<svg xmlns="http://www.w3.org/2000/svg" xmlns:xlink="http://www.w3.org/1999/xlink" preserveAspectRatio="xMidYMid" width="24" height="18" viewBox="0 0 24 18">
  <defs>
    <style>

      .cls-2 {
        fill: #74797c;
      }
    </style>
  </defs>
  <path d="M21.065,17.999 C21.065,17.999 2.935,17.999 2.935,17.999 C1.316,17.999 -0.000,16.702 -0.000,15.107 C-0.000,15.107 -0.000,2.891 -0.000,2.891 C-0.000,1.296 1.316,-0.000 2.935,-0.000 C2.935,-0.000 21.070,-0.000 21.070,-0.000 C22.689,-0.000 24.005,1.301 24.000,2.897 C24.000,2.897 24.000,15.107 24.000,15.107 C24.000,16.702 22.684,17.999 21.065,17.999 ZM22.659,15.107 C22.659,15.107 22.659,2.897 22.659,2.897 C22.659,2.030 21.944,1.326 21.065,1.326 C21.065,1.326 2.935,1.326 2.935,1.326 C2.056,1.326 1.341,2.030 1.341,2.897 C1.341,2.897 1.341,15.107 1.341,15.107 C1.341,15.973 2.056,16.678 2.935,16.678 C2.935,16.678 21.070,16.678 21.070,16.678 C21.949,16.678 22.664,15.973 22.664,15.107 C22.664,15.107 22.659,15.107 22.659,15.107 ZM21.055,15.298 C20.921,15.435 20.747,15.503 20.568,15.503 C20.404,15.503 20.236,15.445 20.106,15.322 C20.106,15.322 14.138,9.733 14.138,9.733 C14.138,9.733 12.464,11.211 12.464,11.211 C12.340,11.324 12.176,11.382 12.017,11.382 C11.858,11.382 11.699,11.329 11.570,11.216 C11.570,11.216 9.941,9.782 9.941,9.782 C9.941,9.782 3.938,15.317 3.938,15.317 C3.809,15.435 3.645,15.494 3.481,15.494 C3.302,15.494 3.123,15.420 2.989,15.283 C2.736,15.014 2.751,14.598 3.019,14.349 C3.019,14.349 8.933,8.892 8.933,8.892 C8.933,8.892 2.994,3.660 2.994,3.660 C2.716,3.415 2.691,2.999 2.940,2.725 C3.188,2.451 3.610,2.427 3.888,2.671 C3.888,2.671 10.314,8.339 10.314,8.339 C10.354,8.368 10.388,8.397 10.423,8.432 C10.423,8.436 10.428,8.441 10.433,8.446 C10.433,8.446 12.012,9.836 12.012,9.836 C12.012,9.836 20.106,2.676 20.106,2.676 C20.385,2.432 20.807,2.456 21.055,2.725 C21.303,2.999 21.278,3.415 21.005,3.660 C21.005,3.660 15.136,8.848 15.136,8.848 C15.136,8.848 21.030,14.363 21.030,14.363 C21.298,14.613 21.308,15.034 21.055,15.298 Z" id="path-1" class="cls-2" fill-rule="evenodd"/>
</svg>
