<svg xmlns="http://www.w3.org/2000/svg" xmlns:xlink="http://www.w3.org/1999/xlink" preserveAspectRatio="xMidYMid" width="370" height="370" viewBox="0 0 370 370">
  <defs>
    <style>

      .cls-3 {
        fill: #e2eff2;
      }

      .cls-4 {
        fill: #f1f8f9;
      }
    </style>
  </defs>
  <g id="photosvg">
    <path d="M2.000,-0.000 C2.000,-0.000 368.000,-0.000 368.000,-0.000 C369.105,-0.000 370.000,0.625 370.000,1.729 C370.000,1.729 370.000,367.519 370.000,367.519 C370.000,368.623 369.105,370.000 368.000,370.000 C368.000,370.000 2.000,370.000 2.000,370.000 C0.895,370.000 -0.000,369.104 -0.000,368.000 C-0.000,368.000 -0.000,2.000 -0.000,2.000 C-0.000,0.896 0.895,-0.000 2.000,-0.000 Z" id="path-1" class="cls-3" fill-rule="evenodd"/>
    <path d="M251.401,246.664 C251.069,247.525 250.440,248.253 249.679,248.750 C248.686,249.379 224.880,264.578 185.050,264.578 C145.219,264.578 121.413,249.412 120.420,248.750 C119.626,248.253 119.030,247.525 118.698,246.664 C116.944,242.227 116.977,233.385 117.010,231.663 C117.010,231.630 117.010,231.597 117.010,231.564 C117.043,231.299 117.043,231.034 117.043,230.736 C117.242,224.212 117.672,208.881 132.041,203.947 C132.141,203.913 132.240,203.880 132.373,203.847 C147.371,200.039 159.721,191.429 159.853,191.330 C161.873,189.906 164.654,190.403 166.078,192.423 C167.501,194.443 167.005,197.224 164.985,198.648 C164.422,199.012 151.245,208.218 134.756,212.457 C127.042,215.205 126.181,223.451 125.949,231.001 C125.949,231.299 125.916,231.564 125.916,231.829 C125.850,234.809 126.082,239.412 126.612,242.061 C132.008,245.107 153.165,255.671 185.016,255.671 C217.000,255.671 238.024,245.140 243.388,242.094 C243.918,239.445 244.116,234.842 244.083,231.862 C244.050,231.597 244.050,231.332 244.050,231.034 C243.819,223.484 242.958,215.238 235.243,212.490 C218.755,208.251 205.577,199.079 205.014,198.681 C202.995,197.257 202.498,194.476 203.922,192.456 C205.346,190.436 208.127,189.939 210.146,191.363 C210.279,191.462 222.695,200.072 237.627,203.880 C237.726,203.913 237.859,203.947 237.958,203.980 C252.327,208.881 252.758,224.212 252.957,230.769 C252.957,231.067 252.990,231.332 252.990,231.597 C252.990,231.630 252.990,231.663 252.990,231.696 C253.023,233.418 253.056,242.259 251.401,246.664 ZM185.480,190.833 C185.381,190.833 185.248,190.833 185.149,190.833 C185.083,190.833 185.016,190.833 184.950,190.833 C184.752,190.833 184.586,190.833 184.420,190.833 C174.719,190.668 166.872,187.257 161.111,180.733 C148.364,166.362 150.483,141.725 150.715,139.374 C151.543,121.592 160.019,113.148 166.972,109.207 C173.892,105.266 181.109,104.670 184.785,104.670 C184.785,104.670 184.983,104.670 184.983,104.670 C185.016,104.670 185.083,104.670 185.116,104.670 C185.116,104.670 185.347,104.670 185.347,104.670 C192.036,104.803 198.028,106.392 203.160,109.339 C210.047,113.280 218.391,121.724 219.218,139.374 C219.450,141.725 221.569,166.362 208.822,180.733 C203.028,187.257 195.181,190.668 185.480,190.833 ZM210.345,140.202 C210.312,140.136 210.312,140.036 210.312,139.937 C209.285,117.485 194.088,113.843 185.149,113.644 C185.049,113.644 184.950,113.644 184.884,113.644 C184.884,113.644 184.752,113.644 184.752,113.644 C177.534,113.644 160.681,116.194 159.588,139.937 C159.588,140.003 159.555,140.102 159.555,140.202 C159.522,140.400 157.271,163.017 167.766,174.806 C171.905,179.508 177.500,181.826 184.785,181.892 C184.851,181.892 184.884,181.892 184.950,181.892 C185.016,181.892 185.049,181.892 185.116,181.892 C192.433,181.826 197.995,179.508 202.167,174.806 C212.696,162.951 210.378,140.434 210.345,140.202 Z" id="path-2" class="cls-4" fill-rule="evenodd"/>
  </g>
</svg>
