<svg xmlns="http://www.w3.org/2000/svg" xmlns:xlink="http://www.w3.org/1999/xlink" preserveAspectRatio="xMidYMid" width="13" height="16" viewBox="0 0 13 16">
  <defs>
    <style>

      .cls-2 {
        fill: #ffffff;
        filter: url(#color-overlay-1);
      }
    </style>

    <filter id="color-overlay-1" filterUnits="userSpaceOnUse">
      <feFlood flood-color="#00badf" flood-opacity="1"/>
      <feComposite operator="in" in2="SourceGraphic"/>
      <feBlend mode="normal" in2="SourceGraphic" result="colorOverlay"/>
    </filter>
  </defs>
  <path d="M12.841,14.207 C12.810,14.293 12.749,14.366 12.677,14.416 C12.582,14.479 10.307,15.999 6.502,15.999 C2.696,15.999 0.422,14.482 0.327,14.416 C0.251,14.366 0.194,14.293 0.162,14.207 C-0.006,13.763 -0.002,12.878 0.001,12.706 C0.001,12.703 0.001,12.700 0.001,12.696 C0.004,12.670 0.004,12.643 0.004,12.613 C0.023,11.961 0.064,10.426 1.437,9.933 C1.446,9.930 1.456,9.926 1.469,9.923 C2.902,9.542 4.082,8.680 4.094,8.671 C4.287,8.528 4.553,8.578 4.689,8.780 C4.825,8.982 4.778,9.260 4.585,9.403 C4.531,9.439 3.272,10.361 1.696,10.784 C0.959,11.060 0.877,11.884 0.855,12.640 C0.855,12.670 0.852,12.696 0.852,12.723 C0.845,13.021 0.868,13.481 0.918,13.746 C1.434,14.051 3.455,15.108 6.498,15.108 C9.554,15.108 11.563,14.055 12.076,13.750 C12.126,13.485 12.145,13.024 12.142,12.726 C12.139,12.700 12.139,12.673 12.139,12.643 C12.117,11.888 12.035,11.063 11.297,10.788 C9.722,10.364 8.463,9.446 8.409,9.406 C8.216,9.264 8.169,8.985 8.305,8.783 C8.441,8.581 8.707,8.531 8.900,8.674 C8.912,8.684 10.098,9.545 11.525,9.926 C11.535,9.930 11.547,9.933 11.557,9.936 C12.930,10.426 12.971,11.961 12.990,12.617 C12.990,12.646 12.993,12.673 12.993,12.700 C12.993,12.703 12.993,12.706 12.993,12.710 C12.996,12.882 12.999,13.766 12.841,14.207 ZM6.543,8.621 C6.533,8.621 6.521,8.621 6.511,8.621 C6.505,8.621 6.498,8.621 6.492,8.621 C6.473,8.621 6.457,8.621 6.442,8.621 C5.515,8.604 4.765,8.263 4.214,7.610 C2.997,6.172 3.199,3.707 3.221,3.472 C3.300,1.693 4.110,0.848 4.774,0.454 C5.436,0.059 6.125,-0.001 6.476,-0.001 C6.476,-0.001 6.495,-0.001 6.495,-0.001 C6.498,-0.001 6.505,-0.001 6.508,-0.001 C6.508,-0.001 6.530,-0.001 6.530,-0.001 C7.169,0.013 7.742,0.172 8.232,0.467 C8.890,0.861 9.687,1.706 9.766,3.472 C9.788,3.707 9.991,6.172 8.773,7.610 C8.219,8.263 7.470,8.604 6.543,8.621 ZM8.919,3.555 C8.915,3.548 8.915,3.538 8.915,3.528 C8.817,1.282 7.365,0.917 6.511,0.897 C6.502,0.897 6.492,0.897 6.486,0.897 C6.486,0.897 6.473,0.897 6.473,0.897 C5.784,0.897 4.173,1.153 4.069,3.528 C4.069,3.535 4.066,3.545 4.066,3.555 C4.063,3.575 3.848,5.838 4.850,7.017 C5.246,7.487 5.780,7.720 6.476,7.726 C6.483,7.726 6.486,7.726 6.492,7.726 C6.498,7.726 6.502,7.726 6.508,7.726 C7.207,7.720 7.739,7.487 8.137,7.017 C9.143,5.831 8.922,3.578 8.919,3.555 Z" id="path-1" class="cls-2" fill-rule="evenodd"/>
</svg>
