<svg xmlns="http://www.w3.org/2000/svg" xmlns:xlink="http://www.w3.org/1999/xlink" preserveAspectRatio="xMidYMid" width="21" height="20" viewBox="0 0 21 20">
  <defs>
    <style>

      .cls-2 {
        fill: #e74c3c;
      }
    </style>
  </defs>
  <path d="M20.874,19.676 C20.754,19.878 20.540,20.001 20.308,20.001 C20.308,20.001 0.639,20.001 0.639,20.001 C0.407,20.001 0.192,19.878 0.073,19.676 C-0.046,19.475 -0.052,19.226 0.056,19.018 C0.056,19.018 9.891,0.317 9.891,0.317 C10.120,-0.119 10.826,-0.119 11.055,0.317 C11.055,0.317 20.891,19.018 20.891,19.018 C20.999,19.226 20.993,19.475 20.874,19.676 ZM10.474,2.052 C10.474,2.052 1.978,18.999 1.978,18.999 C1.978,18.999 18.969,18.999 18.969,18.999 C18.969,18.999 10.474,2.052 10.474,2.052 ZM10.474,6.953 C10.838,6.953 11.973,7.631 11.973,8.000 C11.973,8.000 10.973,13.999 10.973,13.999 C10.973,14.369 10.838,14.053 10.474,14.053 C10.109,14.053 9.974,14.368 9.974,13.999 C9.974,13.999 8.974,8.000 8.974,8.000 C8.974,7.630 10.109,6.953 10.474,6.953 ZM10.973,17.000 C10.973,17.000 9.974,17.000 9.974,17.000 C9.974,17.000 9.974,15.000 9.974,15.000 C9.974,15.000 10.973,15.000 10.973,15.000 C10.973,15.000 10.973,17.000 10.973,17.000 Z" id="path-1" class="cls-2" fill-rule="evenodd"/>
</svg>
