<svg xmlns="http://www.w3.org/2000/svg" xmlns:xlink="http://www.w3.org/1999/xlink" preserveAspectRatio="xMidYMid" width="20" height="19" viewBox="0 0 20 19">
  <defs>
    <style>

      .cls-2 {
        fill: #00badf;
      }
    </style>
  </defs>
  <path d="M20.002,7.180 C19.937,6.980 19.764,6.837 19.554,6.804 C19.554,6.804 13.305,5.922 13.305,5.922 C13.305,5.922 10.493,0.306 10.493,0.306 C10.399,0.118 10.205,-0.000 9.996,-0.000 C9.996,-0.000 9.996,-0.000 9.996,-0.000 C9.786,-0.000 9.593,0.118 9.498,0.310 C9.498,0.310 6.723,5.942 6.723,5.942 C6.723,5.942 0.475,6.865 0.475,6.865 C0.265,6.898 0.092,7.041 0.027,7.241 C-0.039,7.441 0.018,7.662 0.170,7.805 C0.170,7.805 4.705,12.171 4.705,12.171 C4.705,12.171 3.657,18.354 3.657,18.354 C3.620,18.563 3.706,18.771 3.879,18.894 C3.973,18.963 4.088,19.000 4.203,19.000 C4.294,19.000 4.380,18.979 4.462,18.934 C4.462,18.934 10.041,15.998 10.041,15.998 C10.041,15.998 15.636,18.902 15.636,18.902 C15.718,18.942 15.805,18.963 15.891,18.963 C15.891,18.963 15.891,18.963 15.891,18.963 C16.195,18.963 16.446,18.714 16.446,18.412 C16.446,18.367 16.442,18.326 16.430,18.285 C16.430,18.285 15.348,12.138 15.348,12.138 C15.348,12.138 19.854,7.748 19.854,7.748 C20.015,7.601 20.068,7.380 20.002,7.180 ZM14.370,11.554 C14.238,11.681 14.181,11.864 14.214,12.044 C14.214,12.044 15.155,17.407 15.155,17.407 C15.155,17.407 10.296,14.887 10.296,14.887 C10.136,14.801 9.942,14.805 9.778,14.887 C9.778,14.887 4.935,17.435 4.935,17.435 C4.935,17.435 5.844,12.065 5.844,12.065 C5.872,11.885 5.815,11.705 5.683,11.579 C5.683,11.579 1.753,7.788 1.753,7.788 C1.753,7.788 7.176,6.988 7.176,6.988 C7.357,6.959 7.513,6.849 7.591,6.686 C7.591,6.686 10.000,1.797 10.000,1.797 C10.000,1.797 12.442,6.673 12.442,6.673 C12.524,6.837 12.680,6.947 12.861,6.976 C12.861,6.976 18.288,7.743 18.288,7.743 C18.288,7.743 14.370,11.554 14.370,11.554 Z" id="path-1" class="cls-2" fill-rule="evenodd"/>
</svg>
