<svg xmlns="http://www.w3.org/2000/svg" xmlns:xlink="http://www.w3.org/1999/xlink" preserveAspectRatio="xMidYMid" width="23" height="24" viewBox="0 0 23 24">
  <defs>
    <style>

      .cls-2 {
        fill: #2D63E2;
      }
    </style>
  </defs>
  <path d="M22.641,21.860 C22.641,21.860 16.973,15.919 16.973,15.919 C18.430,14.173 19.229,11.977 19.229,9.690 C19.229,4.347 14.915,0.000 9.613,0.000 C4.311,0.000 -0.002,4.347 -0.002,9.690 C-0.002,15.033 4.311,19.380 9.613,19.380 C11.604,19.380 13.500,18.775 15.122,17.626 C15.122,17.626 20.833,23.612 20.833,23.612 C21.072,23.862 21.393,24.000 21.737,24.000 C22.063,24.000 22.372,23.875 22.606,23.647 C23.104,23.164 23.120,22.362 22.641,21.860 ZM9.613,2.528 C13.532,2.528 16.720,5.741 16.720,9.690 C16.720,13.639 13.532,16.852 9.613,16.852 C5.694,16.852 2.506,13.639 2.506,9.690 C2.506,5.741 5.694,2.528 9.613,2.528 Z" id="path-1" class="cls-2" fill-rule="evenodd"/>
</svg>
