<svg xmlns="http://www.w3.org/2000/svg" xmlns:xlink="http://www.w3.org/1999/xlink" preserveAspectRatio="xMidYMid" width="24" height="24" viewBox="0 0 24 24">
  <defs>
    <style>

      .cls-2 {
        fill: #74797c;
      }
    </style>
  </defs>
  <path d="M22.759,14.519 C22.759,14.519 21.074,14.799 21.074,14.799 C20.903,15.361 20.673,15.907 20.397,16.434 C20.397,16.434 21.390,17.828 21.390,17.828 C21.811,18.419 21.741,19.226 21.229,19.738 C21.229,19.738 19.735,21.232 19.735,21.232 C19.454,21.513 19.083,21.668 18.687,21.668 C18.376,21.668 18.075,21.573 17.824,21.392 C17.824,21.392 16.435,20.400 16.435,20.400 C15.914,20.675 15.367,20.901 14.800,21.076 C14.800,21.076 14.515,22.761 14.515,22.761 C14.394,23.478 13.777,24.000 13.050,24.000 C13.050,24.000 10.934,24.000 10.934,24.000 C10.207,24.000 9.590,23.478 9.470,22.761 C9.470,22.761 9.189,21.076 9.189,21.076 C8.642,20.906 8.111,20.691 7.604,20.425 C7.604,20.425 6.195,21.428 6.195,21.428 C5.944,21.608 5.649,21.703 5.338,21.703 C4.942,21.703 4.570,21.548 4.289,21.267 C4.289,21.267 2.795,19.773 2.795,19.773 C2.279,19.261 2.214,18.454 2.635,17.863 C2.635,17.863 3.623,16.489 3.623,16.489 C3.342,15.968 3.111,15.421 2.936,14.860 C2.936,14.860 1.231,14.569 1.231,14.569 C0.513,14.449 -0.008,13.832 -0.008,13.105 C-0.008,13.105 -0.008,10.994 -0.008,10.994 C-0.008,10.267 0.513,9.651 1.231,9.530 C1.231,9.530 2.895,9.249 2.895,9.249 C3.066,8.683 3.287,8.137 3.562,7.610 C3.562,7.610 2.560,6.201 2.560,6.201 C2.138,5.610 2.208,4.803 2.720,4.291 C2.720,4.291 4.219,2.797 4.219,2.797 C4.495,2.516 4.871,2.361 5.267,2.361 C5.578,2.361 5.879,2.456 6.130,2.637 C6.130,2.637 7.509,3.629 7.509,3.629 C8.031,3.348 8.577,3.118 9.139,2.943 C9.139,2.943 9.430,1.238 9.430,1.238 C9.550,0.521 10.167,-0.001 10.894,-0.001 C10.894,-0.001 13.005,-0.001 13.005,-0.001 C13.732,-0.001 14.349,0.521 14.469,1.238 C14.469,1.238 14.750,2.902 14.750,2.902 C15.337,3.078 15.904,3.313 16.445,3.599 C16.445,3.599 17.839,2.606 17.839,2.606 C18.090,2.426 18.386,2.331 18.697,2.331 C19.093,2.331 19.464,2.486 19.745,2.767 C19.745,2.767 21.239,4.261 21.239,4.261 C21.756,4.773 21.821,5.580 21.400,6.171 C21.400,6.171 20.407,7.560 20.407,7.560 C20.683,8.081 20.908,8.628 21.084,9.195 C21.084,9.195 22.769,9.480 22.769,9.480 C23.486,9.600 24.007,10.217 23.997,10.944 C23.997,10.944 23.997,13.055 23.997,13.055 C23.997,13.782 23.476,14.398 22.759,14.519 ZM22.659,10.944 C22.659,10.879 22.613,10.824 22.548,10.814 C22.548,10.814 20.442,10.458 20.442,10.458 C20.181,10.417 19.965,10.222 19.900,9.962 C19.710,9.224 19.419,8.517 19.028,7.861 C18.892,7.630 18.902,7.339 19.058,7.124 C19.058,7.124 20.297,5.384 20.297,5.384 C20.332,5.329 20.327,5.259 20.281,5.214 C20.281,5.214 18.787,3.720 18.787,3.720 C18.752,3.684 18.712,3.679 18.692,3.679 C18.667,3.679 18.642,3.689 18.617,3.704 C18.617,3.704 16.886,4.948 16.886,4.948 C16.666,5.103 16.380,5.113 16.149,4.978 C15.477,4.582 14.755,4.286 13.998,4.095 C13.737,4.030 13.542,3.815 13.497,3.549 C13.497,3.549 13.146,1.458 13.146,1.458 C13.136,1.393 13.080,1.348 13.015,1.348 C13.015,1.348 10.904,1.348 10.904,1.348 C10.839,1.348 10.784,1.393 10.774,1.458 C10.774,1.458 10.413,3.579 10.413,3.579 C10.367,3.840 10.172,4.050 9.916,4.121 C9.179,4.311 8.472,4.612 7.820,5.003 C7.589,5.138 7.298,5.128 7.078,4.973 C7.078,4.973 5.348,3.739 5.348,3.739 C5.328,3.724 5.303,3.715 5.272,3.715 C5.247,3.715 5.212,3.720 5.177,3.755 C5.177,3.755 3.683,5.249 3.683,5.249 C3.638,5.294 3.633,5.369 3.668,5.419 C3.668,5.419 4.917,7.174 4.917,7.174 C5.072,7.390 5.087,7.675 4.952,7.906 C4.565,8.563 4.280,9.275 4.094,10.012 C4.029,10.272 3.813,10.468 3.547,10.513 C3.547,10.513 1.456,10.864 1.456,10.864 C1.391,10.874 1.346,10.929 1.346,10.994 C1.346,10.994 1.346,13.105 1.346,13.105 C1.346,13.170 1.391,13.225 1.456,13.236 C1.456,13.236 3.577,13.596 3.577,13.596 C3.838,13.641 4.049,13.837 4.119,14.093 C4.310,14.830 4.610,15.537 5.002,16.188 C5.137,16.419 5.127,16.710 4.972,16.930 C4.972,16.930 3.738,18.660 3.738,18.660 C3.703,18.715 3.708,18.785 3.753,18.831 C3.753,18.831 5.247,20.324 5.247,20.324 C5.282,20.359 5.323,20.365 5.343,20.365 C5.368,20.365 5.393,20.354 5.418,20.339 C5.418,20.339 7.173,19.091 7.173,19.091 C7.288,19.006 7.429,18.966 7.564,18.966 C7.680,18.966 7.800,18.996 7.905,19.056 C8.552,19.427 9.244,19.713 9.961,19.898 C10.217,19.963 10.413,20.174 10.458,20.440 C10.458,20.440 10.809,22.545 10.809,22.545 C10.819,22.611 10.874,22.656 10.939,22.656 C10.939,22.656 13.050,22.656 13.050,22.656 C13.116,22.656 13.171,22.611 13.181,22.545 C13.181,22.545 13.537,20.440 13.537,20.440 C13.577,20.179 13.772,19.963 14.033,19.898 C14.770,19.708 15.477,19.417 16.134,19.026 C16.365,18.891 16.656,18.901 16.871,19.056 C16.871,19.056 18.612,20.295 18.612,20.295 C18.632,20.309 18.657,20.319 18.687,20.319 C18.712,20.319 18.747,20.314 18.782,20.279 C18.782,20.279 20.276,18.785 20.276,18.785 C20.322,18.740 20.327,18.665 20.291,18.615 C20.291,18.615 19.053,16.870 19.053,16.870 C18.898,16.649 18.887,16.364 19.023,16.133 C19.414,15.476 19.705,14.770 19.895,14.033 C19.960,13.777 20.171,13.581 20.437,13.536 C20.437,13.536 22.543,13.185 22.543,13.185 C22.608,13.175 22.653,13.120 22.653,13.055 C22.653,13.055 22.659,13.055 22.659,13.055 C22.659,13.055 22.659,10.944 22.659,10.944 ZM11.997,17.176 C9.139,17.176 6.817,14.854 6.817,11.997 C6.817,9.139 9.139,6.818 11.997,6.818 C14.856,6.818 17.177,9.139 17.177,11.997 C17.177,14.854 14.856,17.176 11.997,17.176 ZM11.997,8.172 C9.886,8.172 8.171,9.886 8.171,11.997 C8.171,14.108 9.886,15.822 11.997,15.822 C14.108,15.822 15.823,14.108 15.823,11.997 C15.823,9.886 14.108,8.172 11.997,8.172 Z" id="path-1" class="cls-2" fill-rule="evenodd"/>
</svg>
