<svg xmlns="http://www.w3.org/2000/svg" xmlns:xlink="http://www.w3.org/1999/xlink" preserveAspectRatio="xMidYMid" width="50" height="50" viewBox="0 0 50 50">
  <defs>
    <style>

      .cls-3 {
        fill: #ffffff;
        filter: url(#drop-shadow-1);
      }

      .cls-4 {
        fill: #00b1eb;
        filter: url(#color-overlay-1);
      }
    </style>

    <filter id="drop-shadow-1" filterUnits="userSpaceOnUse">
      <feOffset in="SourceAlpha" dx="0" dy="2"/>
      <feGaussianBlur result="dropShadow" stdDeviation="2"/>
      <feFlood flood-color="#000000" flood-opacity="0.12"/>
      <feComposite operator="in" in2="dropShadow"/>
      <feComposite in="SourceGraphic" result="dropShadow"/>
    </filter>
    <filter id="color-overlay-1" filterUnits="userSpaceOnUse">
      <feFlood flood-color="#00badf" flood-opacity="1"/>
      <feComposite operator="in" in2="SourceGraphic"/>
      <feBlend mode="normal" in2="SourceGraphic" result="colorOverlay"/>
    </filter>
  </defs>
  <g id="social-googlesvg">
    <circle id="circle-1" class="cls-3" cx="24" cy="22" r="21"/>
    <path d="M31.285,22.593 C31.285,22.593 31.285,25.314 31.285,25.314 C31.285,25.314 30.005,25.314 30.005,25.314 C30.005,25.314 30.005,22.593 30.005,22.593 C30.005,22.593 27.445,22.593 27.445,22.593 C27.445,22.593 27.445,21.473 27.445,21.473 C27.445,21.473 30.005,21.473 30.005,21.473 C30.005,21.473 30.005,18.752 30.005,18.752 C30.005,18.752 31.285,18.752 31.285,18.752 C31.285,18.752 31.285,21.473 31.285,21.473 C31.285,21.473 34.005,21.473 34.005,21.473 C34.005,21.473 34.005,22.593 34.005,22.593 C34.005,22.593 31.285,22.593 31.285,22.593 ZM23.991,14.054 C24.607,14.549 25.890,15.593 25.890,17.577 C25.890,19.506 24.767,20.422 23.643,21.282 C23.295,21.620 22.893,21.986 22.893,22.560 C22.893,23.133 23.295,23.446 23.589,23.683 C23.589,23.683 24.554,24.412 24.554,24.412 C25.731,25.377 26.802,26.264 26.801,28.065 C26.801,30.518 24.364,32.995 19.760,32.995 C15.878,32.995 14.005,31.196 14.005,29.265 C14.005,28.326 14.486,26.996 16.066,26.083 C17.725,25.091 19.975,24.961 21.180,24.881 C20.804,24.411 20.377,23.916 20.377,23.108 C20.377,22.665 20.511,22.404 20.643,22.090 C20.348,22.117 20.055,22.143 19.787,22.143 C16.951,22.143 15.344,20.080 15.344,18.045 C15.344,16.846 15.906,15.515 17.056,14.549 C18.584,13.323 20.669,12.991 22.116,12.991 C22.116,12.991 27.391,12.991 27.391,12.991 C27.391,12.991 25.650,14.054 25.650,14.054 C25.650,14.054 23.991,14.054 23.991,14.054 ZM18.664,26.031 C18.075,26.239 16.362,26.865 16.362,28.717 C16.362,30.570 18.209,31.902 21.073,31.902 C23.644,31.902 25.009,30.699 25.009,29.084 C25.009,27.750 24.125,27.047 22.089,25.638 C21.876,25.613 21.742,25.613 21.475,25.613 C21.233,25.613 19.787,25.663 18.664,26.031 ZM20.164,13.976 C19.465,13.976 18.718,14.315 18.288,14.837 C17.833,15.386 17.700,16.088 17.700,16.769 C17.700,18.516 18.743,21.411 21.047,21.411 C21.715,21.411 22.436,21.100 22.866,20.682 C23.482,20.079 23.536,19.246 23.536,18.776 C23.536,16.898 22.384,13.976 20.164,13.976 Z" id="path-1" class="cls-4" fill-rule="evenodd"/>
  </g>
</svg>
