<svg xmlns="http://www.w3.org/2000/svg" xmlns:xlink="http://www.w3.org/1999/xlink" preserveAspectRatio="xMidYMid" width="50" height="50" viewBox="0 0 50 50">
  <defs>
    <style>

      .cls-3 {
        fill: #ffffff;
        filter: url(#drop-shadow-1);
      }

      .cls-4 {
        fill: #00b1eb;
        filter: url(#color-overlay-1);
      }
    </style>

    <filter id="drop-shadow-1" filterUnits="userSpaceOnUse">
      <feOffset in="SourceAlpha" dx="0" dy="2"/>
      <feGaussianBlur result="dropShadow" stdDeviation="2"/>
      <feFlood flood-color="#000000" flood-opacity="0.12"/>
      <feComposite operator="in" in2="dropShadow"/>
      <feComposite in="SourceGraphic" result="dropShadow"/>
    </filter>
    <filter id="color-overlay-1" filterUnits="userSpaceOnUse">
      <feFlood flood-color="#00badf" flood-opacity="1"/>
      <feComposite operator="in" in2="SourceGraphic"/>
      <feBlend mode="normal" in2="SourceGraphic" result="colorOverlay"/>
    </filter>
  </defs>
  <g id="social-redditsvg">
    <circle id="circle-1" class="cls-3" cx="24" cy="22" r="21"/>
    <path d="M34.236,19.838 C35.762,19.838 37.004,21.145 37.004,22.750 C37.004,23.839 36.438,24.808 35.541,25.310 C35.589,25.600 35.618,25.894 35.618,26.192 C35.618,30.496 30.609,33.997 24.452,33.997 C18.295,33.997 13.286,30.496 13.286,26.192 C13.286,25.875 13.322,25.564 13.375,25.257 C12.535,24.738 12.004,23.789 12.004,22.750 C12.004,21.145 13.245,19.838 14.771,19.838 C15.468,19.838 16.132,20.130 16.641,20.624 C18.611,19.273 21.291,18.432 24.249,18.394 C24.249,18.394 25.973,12.664 25.973,12.664 C26.034,12.460 26.235,12.340 26.431,12.390 C26.431,12.390 30.940,13.506 30.940,13.506 C31.270,12.620 32.086,11.990 33.045,11.990 C34.292,11.990 35.307,13.057 35.307,14.369 C35.307,15.683 34.292,16.751 33.045,16.751 C31.795,16.751 30.780,15.683 30.780,14.369 C30.780,14.348 30.785,14.328 30.786,14.306 C30.786,14.306 26.603,13.270 26.603,13.270 C26.603,13.270 25.058,18.409 25.058,18.409 C27.887,18.515 30.442,19.353 32.329,20.666 C32.841,20.146 33.512,19.838 34.236,19.838 ZM33.045,15.935 C33.865,15.935 34.532,15.233 34.532,14.369 C34.532,13.506 33.865,12.804 33.045,12.804 C32.223,12.804 31.555,13.506 31.555,14.369 C31.555,15.233 32.223,15.935 33.045,15.935 ZM36.229,22.750 C36.229,21.594 35.335,20.653 34.236,20.653 C33.761,20.653 33.314,20.834 32.959,21.148 C34.109,22.095 34.940,23.235 35.342,24.488 C35.889,24.105 36.229,23.464 36.229,22.750 ZM14.771,20.653 C13.672,20.653 12.779,21.594 12.779,22.750 C12.779,23.421 13.087,24.037 13.585,24.427 C14.000,23.180 14.840,22.047 15.998,21.108 C15.649,20.820 15.219,20.653 14.771,20.653 ZM24.452,19.202 C18.723,19.202 14.062,22.338 14.062,26.192 C14.062,30.047 18.723,33.183 24.452,33.183 C30.182,33.183 34.844,30.047 34.844,26.192 C34.844,22.338 30.182,19.202 24.452,19.202 ZM28.305,26.481 C27.396,26.481 26.658,25.704 26.658,24.749 C26.658,23.793 27.397,23.015 28.305,23.015 C29.212,23.015 29.951,23.793 29.951,24.749 C29.951,25.704 29.212,26.481 28.305,26.481 ZM28.501,29.309 C28.652,29.468 28.652,29.726 28.501,29.885 C27.671,30.759 26.368,31.183 24.518,31.183 C24.513,31.183 24.509,31.180 24.504,31.180 C24.499,31.180 24.495,31.183 24.490,31.183 C22.640,31.183 21.337,30.759 20.507,29.885 C20.356,29.726 20.356,29.469 20.507,29.309 C20.658,29.150 20.904,29.150 21.055,29.309 C21.732,30.022 22.856,30.368 24.490,30.368 C24.495,30.368 24.499,30.371 24.504,30.371 C24.509,30.371 24.513,30.368 24.518,30.368 C26.152,30.368 27.276,30.022 27.953,29.309 C28.104,29.150 28.350,29.150 28.501,29.309 ZM20.711,26.481 C19.802,26.481 19.063,25.704 19.063,24.749 C19.063,23.793 19.802,23.015 20.711,23.015 C21.619,23.015 22.357,23.793 22.357,24.749 C22.357,25.704 21.619,26.481 20.711,26.481 Z" id="path-1" class="cls-4" fill-rule="evenodd"/>
  </g>
</svg>
