<svg xmlns="http://www.w3.org/2000/svg" xmlns:xlink="http://www.w3.org/1999/xlink" preserveAspectRatio="xMidYMid" width="50" height="50" viewBox="0 0 50 50">
  <defs>
    <style>

      .cls-3 {
        fill: #ffffff;
        filter: url(#drop-shadow-1);
      }

      .cls-4 {
        fill: #00badf;
      }
    </style>

    <filter id="drop-shadow-1" filterUnits="userSpaceOnUse">
      <feOffset in="SourceAlpha" dx="0" dy="2"/>
      <feGaussianBlur result="dropShadow" stdDeviation="2"/>
      <feFlood flood-color="#000000" flood-opacity="0.12"/>
      <feComposite operator="in" in2="dropShadow"/>
      <feComposite in="SourceGraphic" result="dropShadow"/>
    </filter>
  </defs>
  <g id="social-dribbblesvg">
    <circle id="circle-1" class="cls-3" cx="24" cy="22" r="21"/>
    <path d="M31.794,17.473 C30.989,16.094 29.898,15.002 28.519,14.197 C27.139,13.392 25.634,12.989 24.000,12.989 C22.367,12.989 20.861,13.392 19.482,14.197 C18.103,15.002 17.011,16.094 16.206,17.473 C15.401,18.853 14.999,20.359 14.999,21.993 C14.999,23.627 15.402,25.133 16.206,26.513 C17.011,27.892 18.103,28.984 19.482,29.790 C20.861,30.595 22.367,30.997 24.000,30.997 C25.633,30.997 27.140,30.595 28.518,29.790 C29.897,28.984 30.989,27.892 31.794,26.513 C32.599,25.133 33.001,23.627 33.001,21.993 C33.001,20.359 32.599,18.853 31.794,17.473 ZM24.000,14.302 C25.938,14.302 27.630,14.943 29.075,16.225 C29.075,16.225 28.929,16.430 28.929,16.430 C28.870,16.512 28.723,16.670 28.489,16.905 C28.255,17.139 27.999,17.362 27.721,17.573 C27.444,17.784 27.067,18.025 26.590,18.294 C26.114,18.564 25.606,18.800 25.067,19.003 C24.168,17.346 23.207,15.853 22.184,14.525 C22.801,14.376 23.407,14.302 24.000,14.302 ZM17.976,17.221 C18.726,16.276 19.640,15.548 20.719,15.041 C21.687,16.330 22.641,17.808 23.578,19.472 C21.203,20.097 18.836,20.410 16.476,20.410 C16.726,19.230 17.226,18.167 17.976,17.221 ZM16.828,24.766 C16.484,23.887 16.312,22.962 16.312,21.993 C16.312,21.884 16.316,21.801 16.324,21.747 C19.152,21.747 21.781,21.384 24.211,20.656 C24.461,21.141 24.668,21.575 24.832,21.958 C24.801,21.974 24.751,21.991 24.680,22.011 C24.610,22.030 24.559,22.044 24.527,22.052 C24.527,22.052 24.094,22.204 24.094,22.204 C23.797,22.313 23.408,22.501 22.928,22.767 C22.447,23.033 21.937,23.349 21.398,23.717 C20.859,24.084 20.302,24.571 19.728,25.176 C19.154,25.782 18.671,26.433 18.281,27.128 C17.656,26.433 17.171,25.645 16.828,24.766 ZM24.000,29.684 C22.172,29.684 20.539,29.098 19.101,27.926 C19.101,27.926 19.277,28.054 19.277,28.054 C19.550,27.453 19.953,26.874 20.484,26.320 C21.016,25.765 21.527,25.317 22.019,24.977 C22.512,24.637 23.047,24.316 23.625,24.015 C24.203,23.714 24.598,23.523 24.809,23.441 C25.020,23.359 25.188,23.294 25.313,23.247 C25.313,23.247 25.336,23.235 25.336,23.235 C25.336,23.235 25.360,23.235 25.360,23.235 C26.126,25.244 26.672,27.191 27.001,29.074 C26.032,29.481 25.032,29.684 24.000,29.684 ZM30.470,26.150 C29.892,27.044 29.169,27.785 28.302,28.371 C27.981,26.574 27.482,24.741 26.802,22.872 C28.356,22.630 29.954,22.743 31.595,23.212 C31.423,24.275 31.048,25.254 30.470,26.150 ZM31.571,21.888 C31.493,21.872 31.396,21.854 31.278,21.835 C31.161,21.815 31.019,21.792 30.851,21.765 C30.683,21.737 30.495,21.712 30.288,21.688 C30.081,21.665 29.860,21.643 29.626,21.624 C29.391,21.604 29.141,21.589 28.876,21.577 C28.610,21.565 28.340,21.559 28.067,21.559 C27.794,21.559 27.506,21.568 27.206,21.583 C26.905,21.598 26.614,21.626 26.333,21.665 C26.309,21.626 26.280,21.561 26.245,21.471 C26.209,21.381 26.184,21.313 26.169,21.266 C26.020,20.938 25.848,20.567 25.653,20.153 C26.192,19.934 26.706,19.681 27.194,19.396 C27.683,19.111 28.073,18.857 28.366,18.634 C28.659,18.411 28.937,18.175 29.198,17.925 C29.460,17.675 29.630,17.501 29.708,17.403 C29.786,17.305 29.861,17.209 29.931,17.116 C29.931,17.116 29.943,17.104 29.943,17.104 C31.083,18.495 31.666,20.097 31.689,21.911 C31.689,21.911 31.571,21.888 31.571,21.888 Z" id="path-1" class="cls-4" fill-rule="evenodd"/>
  </g>
</svg>
