<svg xmlns="http://www.w3.org/2000/svg" xmlns:xlink="http://www.w3.org/1999/xlink" preserveAspectRatio="xMidYMid" width="50" height="50" viewBox="0 0 50 50">
  <defs>
    <style>

      .cls-3 {
        fill: #ffffff;
        filter: url(#drop-shadow-1);
      }

      .cls-4 {
        fill: #00badf;
      }
    </style>

    <filter id="drop-shadow-1" filterUnits="userSpaceOnUse">
      <feOffset in="SourceAlpha" dx="0" dy="2"/>
      <feGaussianBlur result="dropShadow" stdDeviation="2"/>
      <feFlood flood-color="#000000" flood-opacity="0.12"/>
      <feComposite operator="in" in2="dropShadow"/>
      <feComposite in="SourceGraphic" result="dropShadow"/>
    </filter>
  </defs>
  <g id="social-instagramsvg">
    <circle id="circle-1" class="cls-3" cx="24" cy="22" r="21"/>
    <path d="M28.035,30.996 C28.035,30.996 19.969,30.996 19.969,30.996 C17.230,30.996 15.002,28.767 15.002,26.027 C15.002,26.027 15.002,17.959 15.002,17.959 C15.002,15.219 17.230,12.990 19.969,12.990 C19.969,12.990 28.035,12.990 28.035,12.990 C30.774,12.990 33.002,15.219 33.002,17.959 C33.002,17.959 33.002,26.027 33.002,26.027 C33.002,28.766 30.774,30.996 28.035,30.996 ZM31.405,26.027 C31.405,26.027 31.405,17.959 31.405,17.959 C31.405,16.100 29.893,14.587 28.035,14.587 C28.035,14.587 19.969,14.587 19.969,14.587 C18.111,14.587 16.599,16.100 16.599,17.959 C16.599,17.959 16.599,26.027 16.599,26.027 C16.599,27.886 18.111,29.398 19.969,29.398 C19.969,29.398 28.035,29.398 28.035,29.398 C29.893,29.398 31.405,27.886 31.405,26.027 C31.405,26.027 31.405,26.027 31.405,26.027 ZM28.835,18.342 C28.527,18.342 28.224,18.216 28.007,17.999 C27.789,17.780 27.663,17.478 27.663,17.170 C27.663,16.862 27.789,16.559 28.007,16.342 C28.225,16.123 28.527,15.999 28.835,15.999 C29.143,15.999 29.446,16.123 29.663,16.342 C29.881,16.559 30.006,16.862 30.006,17.170 C30.006,17.478 29.881,17.780 29.663,17.999 C29.445,18.216 29.143,18.342 28.835,18.342 ZM24.002,26.632 C21.445,26.632 19.364,24.551 19.364,21.993 C19.364,19.435 21.445,17.353 24.002,17.353 C26.559,17.353 28.640,19.435 28.640,21.993 C28.640,24.551 26.559,26.632 24.002,26.632 ZM24.002,18.951 C22.325,18.951 20.961,20.315 20.961,21.993 C20.961,23.670 22.325,25.035 24.002,25.035 C25.679,25.035 27.043,23.670 27.043,21.993 C27.043,20.315 25.679,18.951 24.002,18.951 Z" id="path-1" class="cls-4" fill-rule="evenodd"/>
  </g>
</svg>
