<svg xmlns="http://www.w3.org/2000/svg" xmlns:xlink="http://www.w3.org/1999/xlink" preserveAspectRatio="xMidYMid" width="50" height="50" viewBox="0 0 50 50">
  <defs>
    <style>

      .cls-3 {
        fill: #ffffff;
        filter: url(#drop-shadow-1);
      }

      .cls-4 {
        fill: #00badf;
      }
    </style>

    <filter id="drop-shadow-1" filterUnits="userSpaceOnUse">
      <feOffset in="SourceAlpha" dx="0" dy="2"/>
      <feGaussianBlur result="dropShadow" stdDeviation="2"/>
      <feFlood flood-color="#000000" flood-opacity="0.12"/>
      <feComposite operator="in" in2="dropShadow"/>
      <feComposite in="SourceGraphic" result="dropShadow"/>
    </filter>
  </defs>
  <g id="social-behancesvg">
    <circle id="circle-1" class="cls-3" cx="24" cy="22" r="21"/>
    <path d="M33.681,16.973 C33.681,16.973 27.665,16.973 27.665,16.973 C27.665,16.973 27.665,15.572 27.665,15.572 C27.665,15.572 33.681,15.572 33.681,15.572 C33.681,15.572 33.681,16.973 33.681,16.973 C33.681,16.973 33.681,16.973 33.681,16.973 ZM23.661,22.717 C24.049,23.280 24.243,23.965 24.243,24.768 C24.243,25.599 24.025,26.344 23.580,27.003 C23.297,27.439 22.945,27.807 22.523,28.103 C22.047,28.446 21.484,28.680 20.837,28.806 C20.188,28.932 19.485,28.995 18.728,28.995 C18.728,28.995 12.001,28.995 12.001,28.995 C12.001,28.995 12.001,14.991 12.001,14.991 C12.001,14.991 19.215,14.991 19.215,14.991 C21.033,15.018 22.322,15.512 23.084,16.483 C23.540,17.077 23.767,17.791 23.767,18.621 C23.767,19.477 23.538,20.162 23.077,20.683 C22.820,20.975 22.441,21.240 21.939,21.480 C22.699,21.741 23.276,22.152 23.661,22.717 ZM15.446,20.512 C15.446,20.512 18.607,20.512 18.607,20.512 C19.256,20.512 19.782,20.396 20.186,20.165 C20.590,19.934 20.792,19.523 20.792,18.934 C20.792,18.282 20.525,17.850 19.989,17.641 C19.529,17.497 18.941,17.423 18.226,17.423 C18.226,17.423 15.446,17.423 15.446,17.423 C15.446,17.423 15.446,20.512 15.446,20.512 ZM21.096,24.568 C21.096,23.841 20.779,23.338 20.146,23.068 C19.792,22.915 19.293,22.836 18.652,22.830 C18.652,22.830 15.446,22.830 15.446,22.830 C15.446,22.830 15.446,26.563 15.446,26.563 C15.446,26.563 18.603,26.563 18.603,26.563 C19.251,26.563 19.753,26.483 20.115,26.317 C20.769,26.012 21.096,25.431 21.096,24.568 ZM35.912,22.290 C35.985,22.748 36.018,23.413 36.005,24.282 C36.005,24.282 28.214,24.282 28.214,24.282 C28.257,25.290 28.629,25.995 29.333,26.398 C29.757,26.652 30.272,26.775 30.875,26.775 C31.510,26.775 32.028,26.625 32.427,26.315 C32.644,26.151 32.836,25.919 33.002,25.627 C33.002,25.627 35.857,25.627 35.857,25.627 C35.782,26.222 35.439,26.826 34.821,27.439 C33.863,28.415 32.521,28.904 30.797,28.904 C29.373,28.904 28.117,28.492 27.028,27.669 C25.942,26.845 25.396,25.507 25.396,23.651 C25.396,21.911 25.886,20.579 26.869,19.652 C27.855,18.723 29.127,18.260 30.696,18.260 C31.626,18.260 32.464,18.416 33.212,18.729 C33.958,19.043 34.574,19.537 35.059,20.215 C35.498,20.812 35.780,21.503 35.912,22.290 ZM33.102,22.551 C33.049,21.854 32.801,21.327 32.354,20.966 C31.911,20.604 31.357,20.423 30.696,20.423 C29.977,20.423 29.422,20.617 29.027,20.998 C28.630,21.379 28.383,21.896 28.281,22.551 C28.281,22.551 33.102,22.551 33.102,22.551 C33.102,22.551 33.102,22.551 33.102,22.551 Z" id="path-1" class="cls-4" fill-rule="evenodd"/>
  </g>
</svg>
