<svg xmlns="http://www.w3.org/2000/svg" xmlns:xlink="http://www.w3.org/1999/xlink" preserveAspectRatio="xMidYMid" width="50" height="50" viewBox="0 0 50 50">
  <defs>
    <style>

      .cls-3 {
        fill: #ffffff;
        filter: url(#drop-shadow-1);
      }

      .cls-4 {
        fill: #00b1eb;
        filter: url(#color-overlay-1);
      }
    </style>

    <filter id="drop-shadow-1" filterUnits="userSpaceOnUse">
      <feOffset in="SourceAlpha" dx="0" dy="2"/>
      <feGaussianBlur result="dropShadow" stdDeviation="2"/>
      <feFlood flood-color="#000000" flood-opacity="0.12"/>
      <feComposite operator="in" in2="dropShadow"/>
      <feComposite in="SourceGraphic" result="dropShadow"/>
    </filter>
    <filter id="color-overlay-1" filterUnits="userSpaceOnUse">
      <feFlood flood-color="#00badf" flood-opacity="1"/>
      <feComposite operator="in" in2="SourceGraphic"/>
      <feBlend mode="normal" in2="SourceGraphic" result="colorOverlay"/>
    </filter>
  </defs>
  <g id="social-twittersvg">
    <circle id="circle-1" class="cls-3" cx="24" cy="22" r="21"/>
    <path d="M34.982,15.136 C34.952,15.099 34.902,15.086 34.859,15.106 C34.231,15.400 33.571,15.610 32.891,15.735 C33.613,15.163 34.151,14.371 34.427,13.463 C34.440,13.420 34.427,13.372 34.393,13.344 C34.359,13.315 34.311,13.312 34.274,13.335 C33.461,13.843 32.580,14.201 31.655,14.399 C30.835,13.504 29.690,12.991 28.505,12.991 C26.095,12.991 24.135,15.055 24.135,17.591 C24.135,17.898 24.163,18.201 24.219,18.496 C20.882,18.279 17.761,16.593 15.639,13.854 C15.617,13.826 15.584,13.810 15.550,13.813 C15.515,13.816 15.485,13.837 15.468,13.868 C15.081,14.567 14.876,15.366 14.876,16.180 C14.876,17.590 15.485,18.908 16.521,19.778 C15.988,19.711 15.466,19.534 14.996,19.259 C14.965,19.240 14.926,19.241 14.894,19.260 C14.862,19.279 14.842,19.314 14.841,19.353 C14.841,19.353 14.841,19.412 14.841,19.412 C14.841,21.437 16.109,23.215 17.913,23.805 C17.438,23.886 16.945,23.881 16.460,23.783 C16.424,23.776 16.387,23.789 16.362,23.818 C16.338,23.847 16.330,23.888 16.341,23.924 C16.882,25.701 18.385,26.948 20.134,27.103 C18.675,28.228 16.950,28.821 15.128,28.821 C14.792,28.821 14.454,28.800 14.123,28.758 C14.075,28.753 14.028,28.783 14.012,28.831 C13.996,28.879 14.013,28.933 14.054,28.960 C16.026,30.291 18.307,30.995 20.649,30.995 C28.311,30.995 32.890,24.444 32.890,18.111 C32.890,17.935 32.887,17.760 32.880,17.584 C33.707,16.948 34.416,16.169 34.989,15.268 C35.014,15.227 35.011,15.174 34.982,15.136 Z" id="path-1" class="cls-4" fill-rule="evenodd"/>
  </g>
</svg>
