<svg xmlns="http://www.w3.org/2000/svg" xmlns:xlink="http://www.w3.org/1999/xlink" preserveAspectRatio="xMidYMid" width="21" height="18" viewBox="0 0 21 18">
  <defs>
    <style>

      .cls-2 {
        fill: #00badf;
      }
    </style>
  </defs>
  <path d="M20.973,2.145 C20.944,2.108 20.894,2.095 20.851,2.115 C20.223,2.408 19.563,2.619 18.883,2.743 C19.605,2.172 20.143,1.380 20.419,0.472 C20.432,0.429 20.418,0.382 20.384,0.353 C20.350,0.325 20.303,0.321 20.266,0.345 C19.453,0.852 18.572,1.210 17.647,1.409 C16.826,0.513 15.682,0.001 14.497,0.001 C12.087,0.001 10.127,2.064 10.127,4.599 C10.127,4.906 10.155,5.209 10.211,5.504 C6.873,5.287 3.752,3.601 1.630,0.863 C1.609,0.835 1.576,0.819 1.541,0.823 C1.507,0.826 1.476,0.846 1.459,0.877 C1.072,1.576 0.868,2.375 0.868,3.189 C0.868,4.598 1.476,5.916 2.513,6.786 C1.979,6.718 1.458,6.541 0.988,6.267 C0.956,6.248 0.917,6.248 0.885,6.268 C0.854,6.287 0.834,6.322 0.833,6.360 C0.833,6.360 0.832,6.419 0.832,6.419 C0.832,8.444 2.100,10.221 3.904,10.812 C3.429,10.892 2.936,10.887 2.452,10.789 C2.416,10.783 2.378,10.795 2.354,10.824 C2.330,10.853 2.321,10.893 2.333,10.931 C2.874,12.707 4.377,13.953 6.126,14.108 C4.667,15.232 2.942,15.825 1.119,15.825 C0.784,15.825 0.445,15.804 0.114,15.763 C0.067,15.757 0.020,15.787 0.003,15.835 C-0.013,15.883 0.005,15.937 0.045,15.965 C2.018,17.295 4.298,17.999 6.641,17.999 C14.303,17.999 18.882,11.450 18.882,5.119 C18.882,4.943 18.879,4.768 18.872,4.593 C19.699,3.957 20.408,3.178 20.980,2.276 C21.006,2.236 21.003,2.183 20.973,2.145 Z" id="path-1" class="cls-2" fill-rule="evenodd"/>
</svg>
