<svg xmlns="http://www.w3.org/2000/svg" xmlns:xlink="http://www.w3.org/1999/xlink" preserveAspectRatio="xMidYMid" width="24" height="22" viewBox="0 0 24 22">
  <defs>
    <style>

      .cls-2 {
        fill: #bfbfbf;
      }
    </style>
  </defs>
  <path d="M19.516,21.987 C19.516,21.987 4.450,21.987 4.450,21.987 C1.999,21.987 -0.000,20.014 -0.000,17.582 C-0.000,17.582 -0.000,11.298 -0.000,11.298 C-0.000,10.921 0.305,10.619 0.686,10.619 C1.068,10.619 1.373,10.921 1.373,11.298 C1.373,11.298 1.373,17.582 1.373,17.582 C1.373,19.258 2.752,20.628 4.450,20.628 C4.450,20.628 19.516,20.628 19.516,20.628 C21.210,20.628 22.594,19.264 22.594,17.582 C22.594,17.582 22.594,11.399 22.594,11.399 C22.594,11.021 22.899,10.719 23.280,10.719 C23.662,10.719 23.967,11.026 23.967,11.399 C23.967,11.399 23.967,17.582 23.967,17.582 C23.967,20.009 21.973,21.987 19.516,21.987 ZM12.467,16.590 C12.334,16.726 12.156,16.791 11.983,16.791 C11.810,16.791 11.632,16.721 11.500,16.590 C11.500,16.590 7.131,12.270 7.131,12.270 C6.861,12.003 6.861,11.575 7.131,11.308 C7.400,11.041 7.833,11.041 8.102,11.308 C8.102,11.308 10.985,13.992 10.985,13.992 C10.985,13.992 10.985,0.999 10.985,0.999 C10.985,0.622 11.602,-0.000 11.983,-0.000 C12.365,-0.000 12.982,0.622 12.982,0.999 C12.982,0.999 12.982,13.992 12.982,13.992 C12.982,13.992 15.859,11.308 15.859,11.308 C16.129,11.041 16.561,11.041 16.831,11.308 C17.100,11.575 17.100,12.003 16.831,12.270 C16.831,12.270 12.467,16.590 12.467,16.590 Z" id="path-1" class="cls-2" fill-rule="evenodd"/>
</svg>
