<svg xmlns="http://www.w3.org/2000/svg" xmlns:xlink="http://www.w3.org/1999/xlink" preserveAspectRatio="xMidYMid" width="18" height="20" viewBox="0 0 18 20">
  <defs>
    <style>

      .cls-2 {
        fill: #bfbfbf;
      }
    </style>
  </defs>
  <path d="M16.821,17.746 C16.780,17.854 16.701,17.944 16.605,18.007 C16.481,18.085 13.501,19.987 8.515,19.987 C3.528,19.987 0.548,18.090 0.424,18.007 C0.324,17.944 0.250,17.854 0.208,17.746 C-0.011,17.191 -0.007,16.085 -0.003,15.870 C-0.003,15.866 -0.003,15.861 -0.003,15.858 C0.001,15.824 0.001,15.791 0.001,15.754 C0.026,14.938 0.080,13.020 1.879,12.403 C1.891,12.399 1.904,12.395 1.920,12.391 C3.798,11.914 5.344,10.837 5.361,10.825 C5.613,10.647 5.962,10.710 6.140,10.962 C6.318,11.214 6.256,11.562 6.003,11.740 C5.932,11.786 4.283,12.938 2.219,13.468 C1.253,13.812 1.145,14.843 1.116,15.787 C1.116,15.824 1.112,15.858 1.112,15.890 C1.104,16.263 1.133,16.839 1.199,17.170 C1.875,17.551 4.523,18.873 8.511,18.873 C12.514,18.873 15.146,17.556 15.818,17.175 C15.884,16.843 15.909,16.268 15.905,15.894 C15.901,15.861 15.901,15.829 15.901,15.791 C15.872,14.847 15.764,13.816 14.798,13.472 C12.734,12.942 11.085,11.794 11.014,11.745 C10.761,11.566 10.699,11.218 10.877,10.966 C11.055,10.714 11.404,10.651 11.656,10.829 C11.673,10.842 13.228,11.919 15.097,12.395 C15.109,12.399 15.126,12.403 15.138,12.407 C16.937,13.020 16.991,14.938 17.016,15.758 C17.016,15.795 17.020,15.829 17.020,15.861 C17.020,15.866 17.020,15.870 17.020,15.874 C17.024,16.090 17.028,17.195 16.821,17.746 ZM8.569,10.763 C8.556,10.763 8.540,10.763 8.527,10.763 C8.519,10.763 8.511,10.763 8.502,10.763 C8.477,10.763 8.457,10.763 8.436,10.763 C7.222,10.742 6.239,10.316 5.518,9.500 C3.922,7.702 4.187,4.621 4.216,4.327 C4.320,2.103 5.381,1.047 6.252,0.554 C7.118,0.061 8.021,-0.013 8.482,-0.013 C8.482,-0.013 8.506,-0.013 8.506,-0.013 C8.511,-0.013 8.519,-0.013 8.523,-0.013 C8.523,-0.013 8.552,-0.013 8.552,-0.013 C9.389,0.003 10.140,0.202 10.782,0.571 C11.644,1.063 12.689,2.120 12.792,4.327 C12.821,4.621 13.086,7.702 11.491,9.500 C10.765,10.316 9.783,10.742 8.569,10.763 ZM11.681,4.430 C11.677,4.422 11.677,4.410 11.677,4.398 C11.549,1.589 9.646,1.134 8.527,1.109 C8.515,1.109 8.502,1.109 8.494,1.109 C8.494,1.109 8.477,1.109 8.477,1.109 C7.574,1.109 5.464,1.428 5.327,4.398 C5.327,4.406 5.323,4.418 5.323,4.430 C5.319,4.456 5.037,7.284 6.351,8.759 C6.869,9.347 7.570,9.636 8.482,9.645 C8.490,9.645 8.494,9.645 8.502,9.645 C8.511,9.645 8.515,9.645 8.523,9.645 C9.439,9.636 10.135,9.347 10.658,8.759 C11.976,7.276 11.686,4.460 11.681,4.430 Z" id="path-1" class="cls-2" fill-rule="evenodd"/>
</svg>
